<svg width="48" height="48" viewBox="0 0 48 48" fill="none" xmlns="http://www.w3.org/2000/svg">
<g clip-path="url(#clip0_866_7)">
<path d="M28.5115 30.9014V47.5447C34.0459 46.4963 38.8984 43.5608 42.3607 39.4197L32.4984 29.2764C31.0557 27.7825 28.5115 28.8047 28.5115 30.9014Z" fill="#28C065"/>
<path d="M24 0C10.7541 0 0 10.746 0 23.982C0 35.095 7.58033 44.4519 17.8361 47.1516V12.8166C17.8361 11.5323 18.8852 10.484 20.1705 10.484H27.541C28.1705 10.484 28.7475 10.7198 29.1934 11.1654L47.3967 29.3551C47.7902 27.6252 48 25.8167 48 23.982C48 10.746 37.2459 0 24 0Z" fill="#28C065"/>
</g>
<defs>
<clipPath id="clip0_866_7">
<rect width="48" height="48" fill="white"/>
</clipPath>
</defs>
</svg>
