<?xml version="1.0" encoding="utf-8"?><svg viewBox="0 0 282 261" xmlns="http://www.w3.org/2000/svg" xmlns:xlink="http://www.w3.org/1999/xlink"><style>:root>svg{display:none}:root>svg:target{display:block}</style><svg fill="none" viewBox="0 0 235 117" id="icon-arc" xmlns="http://www.w3.org/2000/svg"><path d="M234.576 117a116.998 116.998 0 00-117-117 117.002 117.002 0 00-117 117h234z" fill="currentColor"/></svg><svg fill="none" viewBox="0 0 18 19" id="icon-asterisk" xmlns="http://www.w3.org/2000/svg"><path fill-rule="evenodd" clip-rule="evenodd" d="M18 12v4a3 3 0 01-2.824 2.995L15 19h-5v-7h8zM8 12v7H3a3 3 0 01-2.995-2.824L0 16v-4h8zM5.667 0C7.007 0 8.205.608 9 1.564A4.325 4.325 0 0112.084.007l.25-.007h.066A2.6 2.6 0 0115 2.6c0 .416-.075.814-.211 1.183l-.09.217H15a3 3 0 012.995 2.824L18 7v3h-8V4H8v6H0V7a3 3 0 012.824-2.995L3 4h.3c-.192-.427-.3-.9-.3-1.4A2.6 2.6 0 015.436.005L5.6 0h.067zm0 2H5.6a.6.6 0 00-.6.6A1.4 1.4 0 006.4 4h1.576a2.334 2.334 0 00-2.31-2zM12.4 2h-.067c-1.12 0-2.055.788-2.28 1.84l-.03.16H11.6A1.4 1.4 0 0013 2.6a.6.6 0 00-.503-.592L12.4 2z" fill="currentColor"/></svg><svg fill="none" viewBox="0 0 16 20" id="icon-butterfly" xmlns="http://www.w3.org/2000/svg"><path d="M8 0a2 2 0 00-2 2h10a2 2 0 00-2-2H8zm8 4H6v2.172a1 1 0 01-.293.707l-3.586 3.585a5 5 0 000 7.071l.343.344a5 5 0 007.071 0l5-5A5 5 0 0016 9.343V4z" fill="currentColor"/></svg><svg fill="none" viewBox="0 0 261 163" id="icon-cloud" xmlns="http://www.w3.org/2000/svg"><path d="M216.41 57.006c.551-2.922.839-5.937.839-9.02C217.249 21.484 195.972 0 169.725 0c-16.059 0-30.258 8.043-38.86 20.358-8.259-7.001-18.911-11.218-30.538-11.218-25.995 0-47.115 21.074-47.518 47.224h-.005C23.64 56.364 0 80.235 0 109.682S23.64 163 52.803 163h155.394C237.359 163 261 139.129 261 109.682c0-26.626-19.328-48.692-44.59-52.676z" fill="currentColor"/></svg><svg fill="none" viewBox="0 0 20 21" id="icon-depth" xmlns="http://www.w3.org/2000/svg"><path d="M8.077 1.614C8.415.854 9.456.817 9.864 1.5l.059.114 1.042 2.345a11 11 0 004.337 4.931l.322.189 1.85 1.04a1.01 1.01 0 01.109 1.692l-.108.07-1.851 1.04a11 11 0 00-4.502 4.782l-.157.338-1.042 2.345c-.338.76-1.379.797-1.787.114l-.059-.114-1.042-2.345a11 11 0 00-4.337-4.931l-.322-.189-1.85-1.04a1.01 1.01 0 01-.109-1.692l.108-.07 1.851-1.04a11 11 0 004.502-4.782l.157-.338 1.042-2.345zm9.144-.493a5.732 5.732 0 002.414 2.674c.16.09.16.32 0 .41A5.732 5.732 0 0017.22 6.88a.241.241 0 01-.44 0 5.732 5.732 0 00-2.415-2.674.236.236 0 010-.41A5.732 5.732 0 0016.78 1.12a.241.241 0 01.442 0z" fill="currentColor"/></svg><svg fill="none" viewBox="0 0 249 185" id="icon-diamond" xmlns="http://www.w3.org/2000/svg"><path d="M.557 55.5l124 129.5 124-129.5L189.864 0H59.25L.557 55.5z" fill="currentColor"/></svg><svg fill="none" viewBox="0 0 200 200" id="icon-ellipse" xmlns="http://www.w3.org/2000/svg"><circle cx="100" cy="100" r="100" fill="currentColor"/></svg><svg fill="none" viewBox="0 0 252 157" id="icon-eye" xmlns="http://www.w3.org/2000/svg"><path fill-rule="evenodd" clip-rule="evenodd" d="M251.5 78.5S195.312 157 126 157C56.689 157 .5 78.5.5 78.5S56.688 0 126 0s125.5 78.5 125.5 78.5zm-68.221 0c0 31.543-25.644 57.114-57.279 57.114-31.635 0-57.28-25.571-57.28-57.114 0-31.543 25.645-57.114 57.28-57.114s57.279 25.571 57.279 57.114zM126 111.228c18.128 0 32.823-14.653 32.823-32.728 0-18.075-14.695-32.728-32.823-32.728S93.177 60.425 93.177 78.5c0 18.075 14.695 32.728 32.823 32.728z" fill="currentColor"/></svg><svg fill="none" viewBox="0 0 213 235" id="icon-flower" xmlns="http://www.w3.org/2000/svg"><path fill-rule="evenodd" clip-rule="evenodd" d="M135.851 66.19c61.332-71.196 121.185 34.114 29.557 51.171 91.628 17.799 31.036 122.367-29.557 51.171 31.035 88.994-89.412 88.253-58.376 0-61.332 71.196-121.186-33.372-29.558-51.171C-44.45 100.304 16.143-4.264 77.475 66.189c-31.774-88.252 89.411-88.252 58.376 0zm-29.558 37.822c7.39 0 14.04 5.933 14.04 13.349s-6.65 14.091-14.04 14.091c-7.389 0-13.301-6.675-13.301-14.091 0-7.416 5.912-13.349 13.301-13.349z" fill="currentColor"/></svg><svg fill="none" viewBox="0 0 240 176" id="icon-frame" xmlns="http://www.w3.org/2000/svg"><path d="M0 0h240l-40 88 40 88H0l40-88L0 0z" fill="currentColor"/></svg><svg fill="none" viewBox="0 0 217 190" id="icon-heart" xmlns="http://www.w3.org/2000/svg"><path d="M216.443 56.157C216.443 24.729 191.669 0 161.141 0c-24.651 0-45.504 16.983-52.647 39.93C101.345 16.986 80.492.591 55.841.591 25.307.591.557 24.615.557 56.055c0 15.864 6.321 27.072 16.494 39.066l91.494 94.326 91.389-94.326c10.182-11.994 16.509-23.112 16.509-38.964z" fill="currentColor"/></svg><svg fill="none" viewBox="0 0 225 224" id="icon-hole" xmlns="http://www.w3.org/2000/svg"><path fill-rule="evenodd" clip-rule="evenodd" d="M112.443 34c-43.078 0-78 34.922-78 78s34.922 78 78 78 78-34.922 78-78-34.922-78-78-78zm-112 78c0-61.856 50.144-112 112-112s112 50.144 112 112-50.144 112-112 112-112-50.144-112-112z" fill="currentColor"/></svg><svg fill="none" viewBox="0 0 217 216" id="icon-hope" xmlns="http://www.w3.org/2000/svg"><path fill-rule="evenodd" clip-rule="evenodd" d="M216.278 107.992s1.281-49.626-28.539-79.445C157.92-1.273 108.294.008 108.294.008s-.007.256-.008.741c0-.205-.002-.369-.003-.49-.002-.166-.005-.251-.005-.251s-49.626-1.28-79.446 28.539C-.987 58.366.294 107.992.294 107.992s49.626 1.28 79.445-28.539c27.256-27.255 28.53-71.058 28.547-78.389.018 7.331 1.292 51.134 28.547 78.389 29.819 29.819 79.445 28.539 79.445 28.539zM28.832 187.453C-.987 157.634.294 108.008.294 108.008s49.626-1.28 79.445 28.539c27.256 27.255 28.53 71.058 28.547 78.389.018-7.331 1.292-51.134 28.547-78.389 29.819-29.819 79.445-28.539 79.445-28.539s1.281 49.626-28.539 79.445c-29.819 29.819-79.445 28.539-79.445 28.539s-.007-.256-.008-.741c-.001.485-.008.741-.008.741s-49.626 1.28-79.446-28.539z" fill="currentColor"/></svg><svg fill="none" viewBox="0 0 247 113" id="icon-infinity" xmlns="http://www.w3.org/2000/svg"><path d="M189.695 113c-27.993 0-47.837-19.519-66.195-40.867C104.989 93.612 85.206 113 57.305 113 25.982 113 .5 87.654.5 56.5S25.982 0 57.306 0c28.002 0 48.451 19.919 66.194 40.445C141.233 19.94 161.702 0 189.695 0 221.021 0 246.5 25.346 246.5 56.5S221.008 113 189.695 113zm-52.757-56.706c16.615 19.488 32.677 36.16 52.757 36.16 20.02 0 36.305-16.117 36.305-35.944 0-19.816-16.285-35.943-36.305-35.943-20.377-.01-36.429 16.569-52.757 35.727zM57.306 20.557C37.286 20.557 21 36.683 21 56.5c0 19.827 16.287 35.943 36.306 35.943 20.182 0 36.295-16.818 52.756-36.169-16.348-19.138-32.39-35.717-52.756-35.717z" fill="currentColor"/></svg><svg fill="none" viewBox="0 0 116 219" id="icon-keyhole" xmlns="http://www.w3.org/2000/svg"><path d="M115.714 57.05C115.714 25.538 90.13 0 58.577 0 27.025 0 1.441 25.541 1.441 57.05c0 21.602 12.032 40.401 29.778 50.086L.714 219H115.56L85.162 107.524c18.16-9.562 30.552-28.565 30.552-50.475z" fill="currentColor"/></svg><svg fill="none" viewBox="0 0 205 205" id="icon-leaf" xmlns="http://www.w3.org/2000/svg"><path d="M204.699.015s2.423 93.936-54.02 150.379C94.236 206.837.301 204.413.301 204.413s-2.424-93.935 54.02-150.378C110.762-2.408 204.698.015 204.698.015z" fill="currentColor"/></svg><svg fill="none" viewBox="0 0 18 20" id="icon-lightning" xmlns="http://www.w3.org/2000/svg"><path fill-rule="evenodd" clip-rule="evenodd" d="M9.894.553a1 1 0 00-1.788 0L7.302 2.16a9 9 0 103.396 0L9.894.553zm4.06 5.502c-1.815-.12-3.72.331-5.535 1.628l-.248.17C6.429 8.996 4.61 9.16 2.95 8.749a23.027 23.027 0 01-.523-.165 6.967 6.967 0 00-.415 1.979c.133.041.285.085.456.127 2.26.56 4.763.298 7.112-1.38l.248-.17c1.742-1.144 3.561-1.308 5.22-.896l.446.141a7.01 7.01 0 00-1.54-2.33zm2.033 5.375a7.68 7.68 0 00-.456-.127c-2.26-.561-4.763-.299-7.112 1.38l-.248.17c-1.742 1.143-3.561 1.308-5.22.896a19.378 19.378 0 01-.45-.142c.354.88.88 1.67 1.537 2.33 1.817.122 3.726-.329 5.543-1.627l.248-.17c1.742-1.144 3.561-1.308 5.22-.896l.525.166a6.968 6.968 0 00.413-1.98z" fill="currentColor"/></svg><svg fill="none" viewBox="0 0 139 207" id="icon-orange-ricky" xmlns="http://www.w3.org/2000/svg"><path fill-rule="evenodd" clip-rule="evenodd" d="M69.576 0h-69v207h138v-69h-69V0z" fill="currentColor"/></svg><svg fill="none" viewBox="0 0 219 218" id="icon-portal" xmlns="http://www.w3.org/2000/svg"><path fill-rule="evenodd" clip-rule="evenodd" d="M109.286 218c-.218-60.125-48.935-108.798-109-108.798 60.199 0 109-48.892 109-109.202.217 60.125 48.935 108.798 109 108.798-60.2 0-109 48.892-109 109.202z" fill="currentColor"/></svg><svg fill="none" viewBox="0 0 282 141" id="icon-rainbow" xmlns="http://www.w3.org/2000/svg"><path fill-rule="evenodd" clip-rule="evenodd" d="M186.907 141H282C282 63.128 218.872 0 141 0S0 63.128 0 141h95.093c0-25.354 20.553-45.907 45.907-45.907 25.354 0 45.907 20.553 45.907 45.907z" fill="currentColor"/></svg><svg fill="none" viewBox="0 0 206 206" id="icon-rectangle" xmlns="http://www.w3.org/2000/svg"><path fill="currentColor" d="M0 0h206v206H0z"/></svg><svg fill="none" viewBox="0 0 139 207" id="icon-rhode-island" xmlns="http://www.w3.org/2000/svg"><path fill-rule="evenodd" clip-rule="evenodd" d="M69.576 0h-69v138h69v69h69V69h-69V0z" fill="currentColor"/></svg><svg fill="none" viewBox="0 0 20 17" id="icon-shield" xmlns="http://www.w3.org/2000/svg"><path fill-rule="evenodd" clip-rule="evenodd" d="M13.15 1.649c1.232-.52 2.801-.78 4.912-.647a1 1 0 01.935 1.072l-.016.122-1.679 8.392a3 3 0 01-1.876 2.217l-.179.061.534 2.134H19a1 1 0 01.117 1.993L19 17H4.657a5 5 0 01-3.344-1.283l-.192-.182-.828-.828a1 1 0 011.32-1.497l.094.083.829.828a3 3 0 001.923.872l.198.007h.562l.515-2.06c-1.335-.203-2.76-.93-3.622-2.188-1.102-1.611-1.106-3.814.556-6.307A1 1 0 014.3 4.4c.599.798 1.055 1.174 1.395 1.362l.149.074C6.19 5.991 6.494 6 7 6c.88 0 1.409-.255 1.857-.624.303-.25.57-.538.825-.837l.506-.602c.085-.1.17-.199.258-.296.646-.714 1.464-1.469 2.704-1.992zm.07 11.35H7.78l-.5 2h6.44l-.5-2z" fill="currentColor"/></svg><svg fill="none" viewBox="0 0 229 229" id="icon-smile" xmlns="http://www.w3.org/2000/svg"><path fill-rule="evenodd" clip-rule="evenodd" d="M229 114.5c0 63.237-51.263 114.5-114.5 114.5S0 177.737 0 114.5 51.263 0 114.5 0 229 51.263 229 114.5zM83.967 94.993c10.773 0 19.507-8.734 19.507-19.508 0-10.773-8.734-19.507-19.507-19.507-10.774 0-19.508 8.734-19.508 19.507 0 10.774 8.734 19.508 19.508 19.508zm61.066 0c10.774 0 19.508-8.734 19.508-19.508 0-10.773-8.734-19.507-19.508-19.507-10.773 0-19.507 8.734-19.507 19.507 0 10.774 8.734 19.508 19.507 19.508zm-29.685 59.37c-26.231 0-47.496-21.265-47.496-47.496H47.496c0 37.473 30.379 67.852 67.852 67.852 37.474 0 67.852-30.379 67.852-67.852h-20.356c0 26.231-21.264 47.496-47.496 47.496z" fill="currentColor"/></svg><svg fill="none" viewBox="0 0 16 21" id="icon-soft-star" xmlns="http://www.w3.org/2000/svg"><path fill-rule="evenodd" clip-rule="evenodd" d="M10.7 1.08c.552.397.926.6 1.273.714.342.113.722.162 1.317.158a1 1 0 011.007.959c.03.718.092 1.161.208 1.518.11.337.286.652.629 1.073a1 1 0 01-.216 1.461l-.114.066c-.322.163-.639.337-.953.515a8 8 0 11-11.701 0 21.562 21.562 0 00-.956-.516 1 1 0 01-.328-1.526c.343-.421.52-.736.63-1.073.115-.357.177-.8.207-1.518a1 1 0 011.007-.96c.595.005.975-.044 1.317-.157.347-.115.721-.317 1.272-.714a1 1 0 011.48.364c.188.375.392.743.602 1.108.18.314.39.664.619 1.02a24.927 24.927 0 001.213-2.11c.134-.267.372-.47.664-.542a1 1 0 01.824.16zM9.334 9.228a1 1 0 00-.774 1.84l.108.045a2.01 2.01 0 011.159 1.068l.06.152a1 1 0 101.886-.666 4.008 4.008 0 00-2.439-2.44zM5.514 3.315c-.282.154-.564.28-.86.378-.337.112-.672.18-1.02.218-.047.402-.12.776-.237 1.136a4.54 4.54 0 01-.31.73l.462.265.249.149a7.95 7.95 0 012.827-1.073 23.349 23.349 0 01-.694-1.086l-.29-.492a29.888 29.888 0 01-.127-.225zm4.972 0l-.128.225-.29.492c-.206.343-.44.714-.693 1.086a7.95 7.95 0 012.827 1.073l.487-.287.223-.127a4.547 4.547 0 01-.31-.73 5.814 5.814 0 01-.236-1.136 4.919 4.919 0 01-1.02-.218 5.168 5.168 0 01-.86-.378z" fill="currentColor"/></svg><svg fill="none" viewBox="0 0 204 203" id="icon-stairs" xmlns="http://www.w3.org/2000/svg"><path d="M.576 0h67.667v67.667h67.666v67.666h67.667V203h-203V0z" fill="currentColor"/></svg><svg fill="none" viewBox="0 0 232 232" id="icon-summertime-sadness" xmlns="http://www.w3.org/2000/svg"><path d="M58 0C25.968 0 0 25.968 0 58c0 32.033 25.968 58 58 58-32.032 0-58 25.967-58 58s25.968 58 58 58c32.033 0 58-25.967 58-58 0 32.033 25.967 58 58 58s58-25.967 58-58-25.967-58-58-58c32.033 0 58-25.967 58-58 0-32.032-25.967-58-58-58s-58 25.968-58 58c0-32.032-25.967-58-58-58z" fill="currentColor"/></svg><svg fill="none" viewBox="0 0 218 217" id="icon-team" xmlns="http://www.w3.org/2000/svg"><path fill-rule="evenodd" clip-rule="evenodd" d="M217.286 36.5c0 18.096-13.168 33.115-30.445 36 17.277 2.885 30.445 17.905 30.445 36s-13.168 33.115-30.445 36c17.277 2.885 30.445 17.905 30.445 36 0 20.158-16.342 36.5-36.5 36.5-18.095 0-33.115-13.168-36-30.445-2.885 17.277-17.905 30.445-36 30.445s-33.115-13.168-36-30.445C69.9 203.832 54.88 217 36.786 217c-20.159 0-36.5-16.342-36.5-36.5 0-18.095 13.168-33.115 30.444-36-17.276-2.885-30.444-17.905-30.444-36s13.168-33.115 30.444-36C13.454 69.615.286 54.596.286 36.5.286 16.342 16.627 0 36.786 0c18.095 0 33.115 13.168 36 30.445C75.67 13.168 90.69 0 108.786 0s33.115 13.168 36 30.445C147.671 13.168 162.691 0 180.786 0c20.158 0 36.5 16.342 36.5 36.5zm-144.5 6.056C70.23 57.861 58.148 69.944 42.84 72.5c15.307 2.556 27.389 14.638 29.945 29.945C75.342 87.138 87.424 75.056 102.73 72.5c-15.307-2.556-27.39-14.638-29.945-29.944zM114.84 72.5c15.307-2.556 27.389-14.638 29.945-29.944 2.556 15.306 14.638 27.388 29.945 29.944-15.307 2.556-27.389 14.638-29.945 29.945-2.556-15.307-14.638-27.389-29.945-29.945zm29.945 101.945c2.556-15.307 14.638-27.389 29.945-29.945-15.307-2.556-27.389-14.638-29.945-29.945-2.556 15.307-14.638 27.389-29.945 29.945 15.307 2.556 27.389 14.638 29.945 29.945zm-72-59.89c2.556 15.307 14.638 27.389 29.945 29.945-15.307 2.556-27.39 14.638-29.945 29.945-2.556-15.307-14.638-27.389-29.945-29.945 15.307-2.556 27.389-14.638 29.945-29.945z" fill="currentColor"/></svg><svg fill="none" viewBox="0 0 208 138" id="icon-teewee" xmlns="http://www.w3.org/2000/svg"><path fill-rule="evenodd" clip-rule="evenodd" d="M69.576 0h69v69h69v69h-207V69h69V0z" fill="currentColor"/></svg><svg fill="none" viewBox="0 0 16 20" id="icon-transparency" xmlns="http://www.w3.org/2000/svg"><path fill-rule="evenodd" clip-rule="evenodd" d="M4 4a4 4 0 117.949.64l.206-.055a3 3 0 111.553 5.795L12 10.838v.76l1.848 3.201a3 3 0 11-5.196 3L8 16.67l-.652 1.13a3 3 0 11-5.196-3L4 11.6v-.761l-1.708-.458a3 3 0 111.553-5.795l.206.055A4.023 4.023 0 014 4zm5 5a1 1 0 11-2 0 1 1 0 012 0zm-1 4a1 1 0 100-2 1 1 0 000 2z" fill="currentColor"/></svg><svg fill="none" viewBox="0 0 255 261" id="icon-trust" xmlns="http://www.w3.org/2000/svg"><path fill-rule="evenodd" clip-rule="evenodd" d="M130.05 3.011C60.807 2.026.295 65.022 3.094 132.975l.001.041v.042c-.943 68.13 60.593 127.622 126.914 124.848l.041-.001h.042c66.501.912 124.527-59.607 121.817-124.806l-.002-.041v-.041c.856-65.374-58.189-122.385-121.772-119.691l-.042.002h-.042c-63.755-.844-119.315 57.218-116.68 119.646l.002.041v.041c-.782 62.625 55.8 117.145 116.634 114.535l.041-.001h.042c60.986.75 114.127-54.793 111.541-114.488l-.002-.042v-.041c.729-59.867-53.424-111.913-111.492-109.377l-.042.001h-.041C71.803 22.97 21.157 76.033 23.65 132.971l.001.042v.041c-.641 57.117 51.02 106.678 106.354 104.221l.041-.001h.042c55.504.605 103.688-49.987 101.265-104.17l-.002-.041v-.042c.569-54.365-48.626-101.436-101.212-99.064l-.041.002h-.041c-52.761-.513-98.479 47.573-96.13 99.01l.002.041v.042c-.5 51.61 46.236 96.205 96.073 93.908l.041-.002h.042c50.023.444 93.246-45.174 90.99-93.852l-.002-.041v-.041c.414-48.83-43.832-90.994-90.93-88.751l-.042.002h-.042c-47.278-.391-88.035 42.79-85.854 88.691l.002.041v.041c-.341 46.086 41.438 85.749 85.791 83.596l.042-.002h.041c44.532.304 82.823-40.377 80.716-83.532l-.002-.041v-.041c.269-43.315-39.043-80.523-80.649-78.44l-.041.002h-.042c-41.791-.236-77.597 37.987-75.58 78.372l.002.041v.041c-.177 40.576 36.639 75.288 75.509 73.285l.042-.002h.041c39.046.163 72.39-35.583 70.442-73.213l-.002-.04v-.041c.111-37.814-34.247-70.048-70.366-68.13l-.042.003h-.041c-36.278-.077-67.198 33.175-65.307 68.05l.002.042v.041c-.057 35.072 31.87 64.812 65.226 62.974l.041-.002h.042c33.54.01 61.971-30.77 60.17-62.89l-.003-.041v-.042c-.028-32.298-29.469-59.59-60.081-57.819l-.042.003h-.042c-30.796.067-56.761 28.363-55.035 57.727l.002.041v.042c.1 29.566 27.071 54.337 54.94 52.666l.041-.003h.041c28.051-.147 51.551-25.953 49.901-52.565l-.002-.042-.001-.042c-.17-26.81-24.668-49.107-49.795-47.511l-.041.002h-.041c-25.31.22-46.327 23.546-44.768 47.402l.003.041v.041c.256 24.039 22.267 43.898 44.649 42.361l.043-.002.042-.001c22.568-.27 41.115-21.156 39.634-42.237l-.003-.041-.001-.041c-.325-21.278-19.866-38.673-39.5-37.211l-.043.003h-.042c-19.825.354-35.907 18.738-34.505 37.071l.003.041v.041c.394 18.532 17.464 33.427 34.355 32.064l.041-.004.042-.001c17.079-.42 30.698-16.324 29.377-31.9l-.004-.041-.001-.041c-.474-15.78-15.05-28.205-29.199-26.919l-.042.004-.043.001c-14.338.487-25.477 13.912-24.254 26.726l.004.041.002.04c.538 13.027 12.645 22.98 24.04 21.781l.042-.004.042-.002c11.581-.568 20.292-11.47 19.139-21.543l-.005-.043-.002-.043c-.575-10.261-10.242-17.744-18.87-16.648l-.042.005-.042.003c-8.835.619-15.094 9.049-14.038 16.341l.006.043.004.044c.643 7.515 7.796 12.528 13.676 11.544l.043-.008.043-.004c6.102-.66 9.883-6.581 8.969-11.107l-.009-.044-.006-.044c-.671-4.776-5.303-7.305-8.414-6.494l-.041.011-.042.008c-1.652.333-2.845 1.317-3.533 2.474-.71 1.194-.811 2.437-.499 3.26l.018.049.016.051c.289.961.914 1.512 1.534 1.762.705.285 1.174.121 1.262.054l.052-.04.056-.035.031-.02a1.5 1.5 0 01.636-2.783c1.615-.142 2.406 1.269 2.52 2.235.131 1.115-.373 2.316-1.537 3.074-1.191.864-2.833.826-4.143.297-1.402-.566-2.695-1.775-3.269-3.63-.682-1.853-.311-4.032.744-5.807a8.262 8.262 0 015.479-3.873c4.935-1.257 11.169 2.548 12.094 8.945 1.243 6.302-3.807 13.771-11.552 14.635-7.656 1.252-16.305-5.064-17.114-14.211-1.28-9.042 6.274-18.957 16.762-19.716 10.376-1.291 21.505 7.505 22.198 19.418 1.323 11.801-8.692 24.16-21.936 24.834-13.14 1.356-26.678-9.931-27.308-24.605-1.36-14.52 11.079-29.398 27.1-29.968 15.885-1.416 31.878 12.349 32.425 29.78 1.441 17.282-13.492 34.624-32.253 35.111-18.617 1.477-37.099-14.76-37.552-34.952-1.506-20.034 15.895-39.847 37.404-40.256 21.363-1.564 42.305 17.183 42.68 40.119 1.575 22.777-18.294 45.09-42.55 45.405-24.106 1.629-47.514-19.584-47.812-45.284-1.644-25.553 20.7-50.298 47.697-50.556 26.842-1.678 52.738 21.969 52.944 50.448 1.729 28.309-23.104 55.527-52.841 55.709-29.583 1.749-57.948-24.376-58.078-55.612-1.8-31.058 25.5-60.765 57.984-60.861 32.33-1.845 63.158 26.807 63.213 60.772 1.871 33.813-27.896 66.002-63.127 66.017-35.067 1.906-68.383-29.191-68.349-65.935-1.957-36.568 30.303-71.225 68.27-71.17 37.834-1.984 73.575 31.612 73.484 71.094 2.01 39.318-32.671 76.472-73.41 76.327-40.585 2.066-78.782-34.012-78.622-76.256-2.077-42.072 35.068-81.7 78.553-81.48 43.319-2.144 84.012 36.43 83.757 81.414 2.164 44.844-37.468 86.928-83.693 86.637-46.065 2.211-89.224-38.818-88.895-86.575-2.236-47.588 39.862-92.172 88.835-91.793 48.81-2.298 94.434 41.233 94.032 91.734 2.309 50.366-42.258 97.384-93.975 96.95-51.546 2.351-99.662-43.61-99.17-96.894-2.401-53.127 44.663-102.61 99.116-102.106 54.295-2.424 104.868 46.014 104.307 102.053 2.473 55.872-47.058 107.861-104.256 107.263-57.042 2.507-110.08-48.422-109.445-107.213C18.109 74.435 70.1 19.976 130.047 20.643c59.777-2.585 115.306 50.83 114.583 112.371 2.634 61.383-51.856 118.322-114.536 117.576-62.543 2.658-120.5-53.233-119.721-117.531C7.69 68.947 64.596 9.487 130.048 10.327c65.294-2.741 125.712 55.642 124.859 122.689 2.755 66.883-56.618 128.799-124.816 127.889C62.063 263.725-.846 202.861.095 133.057-2.75 63.405 59.136-.998 130.093.012a1.5 1.5 0 11-.043 3z" fill="currentColor"/></svg><svg fill="none" viewBox="0 0 267 151" id="icon-warm" xmlns="http://www.w3.org/2000/svg"><path d="M5.366 39.509A4.869 4.869 0 00.5 34.638V0c21.797 0 39.468 17.689 39.468 39.509v71.982a4.869 4.869 0 004.865 4.871 4.869 4.869 0 004.866-4.871V39.509C49.7 17.689 67.37 0 89.167 0c21.797 0 39.467 17.689 39.467 39.509v71.982a4.869 4.869 0 004.866 4.871 4.869 4.869 0 004.866-4.871V39.509c0-21.82 17.67-39.509 39.467-39.509 21.798 0 39.468 17.689 39.468 39.509v71.982a4.868 4.868 0 004.866 4.871 4.869 4.869 0 004.866-4.871V39.509C227.033 17.689 244.703 0 266.5 0v34.638a4.869 4.869 0 00-4.866 4.871v71.982c0 21.82-17.67 39.509-39.467 39.509-21.798 0-39.468-17.689-39.468-39.509V39.509a4.868 4.868 0 00-4.866-4.871 4.869 4.869 0 00-4.866 4.871v71.982c0 21.82-17.67 39.509-39.467 39.509-21.797 0-39.467-17.689-39.467-39.509V39.509a4.869 4.869 0 00-4.866-4.871 4.868 4.868 0 00-4.866 4.871v71.982c0 21.82-17.67 39.509-39.468 39.509-21.797 0-39.467-17.689-39.467-39.509V39.509z" fill="currentColor"/></svg><svg fill="none" viewBox="0 0 248 184" id="icon-Ñheckmark" xmlns="http://www.w3.org/2000/svg"><path fill-rule="evenodd" clip-rule="evenodd" d="M90.769 129.598L220.576 0l26.848 26.892L90.769 183.294.576 93.246l26.848-26.891 63.345 63.243z" fill="currentColor"/></svg></svg>