<?xml version="1.0" encoding="utf-8"?><svg viewBox="0 0 282 268" xmlns="http://www.w3.org/2000/svg" xmlns:xlink="http://www.w3.org/1999/xlink"><style>:root>svg{display:none}:root>svg:target{display:block}</style><svg fill="none" viewBox="0 0 235 117" id="icon-arc" xmlns="http://www.w3.org/2000/svg"><path d="M234.576 117a116.998 116.998 0 00-117-117 117.002 117.002 0 00-117 117h234z" fill="currentColor"/></svg><svg fill="none" viewBox="0 0 228 224" id="icon-asterisk" xmlns="http://www.w3.org/2000/svg"><path fill-rule="evenodd" clip-rule="evenodd" d="M46.056 112L0 85.388l33.946-58.776 46.082 26.566L80.054 0h67.892l.026 53.178 46.082-26.566L228 85.388 181.944 112 228 138.612l-33.946 58.776-46.082-26.566-.026 53.178H80.054l-.026-53.178-46.082 26.566L0 138.612 46.056 112z" fill="currentColor"/></svg><svg fill="none" viewBox="0 0 188 192" id="icon-butterfly" xmlns="http://www.w3.org/2000/svg"><path fill-rule="evenodd" clip-rule="evenodd" d="M94.786 100.713c-2.565 50.203-43.797 90.196-94.5 90.78V0c50.703.585 91.935 40.577 94.5 90.78 2.53-49.541 42.717-89.14 92.5-90.736V191.45c-49.783-1.597-89.97-41.195-92.5-90.737z" fill="currentColor"/></svg><svg fill="none" viewBox="0 0 261 163" id="icon-cloud" xmlns="http://www.w3.org/2000/svg"><path d="M216.41 57.006c.551-2.922.839-5.937.839-9.02C217.249 21.484 195.972 0 169.725 0c-16.059 0-30.258 8.043-38.86 20.358-8.259-7.001-18.911-11.218-30.538-11.218-25.995 0-47.115 21.074-47.518 47.224h-.005C23.64 56.364 0 80.235 0 109.682S23.64 163 52.803 163h155.394C237.359 163 261 139.129 261 109.682c0-26.626-19.328-48.692-44.59-52.676z" fill="currentColor"/></svg><svg fill="none" viewBox="0 0 200 200" id="icon-depth" xmlns="http://www.w3.org/2000/svg"><path fill-rule="evenodd" clip-rule="evenodd" d="M200 50L150 0l-50 50L50 0 0 50l50 50-50 50 50 50 50-50 50 50 50-50-50-50 50-50zm-50 50l-50 50-50-50 50-50 50 50z" fill="currentColor"/></svg><svg fill="none" viewBox="0 0 249 185" id="icon-diamond" xmlns="http://www.w3.org/2000/svg"><path d="M.557 55.5l124 129.5 124-129.5L189.864 0H59.25L.557 55.5z" fill="currentColor"/></svg><svg fill="none" viewBox="0 0 200 200" id="icon-ellipse" xmlns="http://www.w3.org/2000/svg"><circle cx="100" cy="100" r="100" fill="currentColor"/></svg><svg fill="none" viewBox="0 0 252 157" id="icon-eye" xmlns="http://www.w3.org/2000/svg"><path fill-rule="evenodd" clip-rule="evenodd" d="M251.5 78.5S195.312 157 126 157C56.689 157 .5 78.5.5 78.5S56.688 0 126 0s125.5 78.5 125.5 78.5zm-68.221 0c0 31.543-25.644 57.114-57.279 57.114-31.635 0-57.28-25.571-57.28-57.114 0-31.543 25.645-57.114 57.28-57.114s57.279 25.571 57.279 57.114zM126 111.228c18.128 0 32.823-14.653 32.823-32.728 0-18.075-14.695-32.728-32.823-32.728S93.177 60.425 93.177 78.5c0 18.075 14.695 32.728 32.823 32.728z" fill="currentColor"/></svg><svg fill="none" viewBox="0 0 213 235" id="icon-flower" xmlns="http://www.w3.org/2000/svg"><path fill-rule="evenodd" clip-rule="evenodd" d="M135.851 66.19c61.332-71.196 121.185 34.114 29.557 51.171 91.628 17.799 31.036 122.367-29.557 51.171 31.035 88.994-89.412 88.253-58.376 0-61.332 71.196-121.186-33.372-29.558-51.171C-44.45 100.304 16.143-4.264 77.475 66.189c-31.774-88.252 89.411-88.252 58.376 0zm-29.558 37.822c7.39 0 14.04 5.933 14.04 13.349s-6.65 14.091-14.04 14.091c-7.389 0-13.301-6.675-13.301-14.091 0-7.416 5.912-13.349 13.301-13.349z" fill="currentColor"/></svg><svg fill="none" viewBox="0 0 240 176" id="icon-frame" xmlns="http://www.w3.org/2000/svg"><path d="M0 0h240l-40 88 40 88H0l40-88L0 0z" fill="currentColor"/></svg><svg fill="none" viewBox="0 0 217 190" id="icon-heart" xmlns="http://www.w3.org/2000/svg"><path d="M216.443 56.157C216.443 24.729 191.669 0 161.141 0c-24.651 0-45.504 16.983-52.647 39.93C101.345 16.986 80.492.591 55.841.591 25.307.591.557 24.615.557 56.055c0 15.864 6.321 27.072 16.494 39.066l91.494 94.326 91.389-94.326c10.182-11.994 16.509-23.112 16.509-38.964z" fill="currentColor"/></svg><svg fill="none" viewBox="0 0 225 224" id="icon-hole" xmlns="http://www.w3.org/2000/svg"><path fill-rule="evenodd" clip-rule="evenodd" d="M112.443 34c-43.078 0-78 34.922-78 78s34.922 78 78 78 78-34.922 78-78-34.922-78-78-78zm-112 78c0-61.856 50.144-112 112-112s112 50.144 112 112-50.144 112-112 112-112-50.144-112-112z" fill="currentColor"/></svg><svg fill="none" viewBox="0 0 217 216" id="icon-hope" xmlns="http://www.w3.org/2000/svg"><path fill-rule="evenodd" clip-rule="evenodd" d="M216.278 107.992s1.281-49.626-28.539-79.445C157.92-1.273 108.294.008 108.294.008s-.007.256-.008.741c0-.205-.002-.369-.003-.49-.002-.166-.005-.251-.005-.251s-49.626-1.28-79.446 28.539C-.987 58.366.294 107.992.294 107.992s49.626 1.28 79.445-28.539c27.256-27.255 28.53-71.058 28.547-78.389.018 7.331 1.292 51.134 28.547 78.389 29.819 29.819 79.445 28.539 79.445 28.539zM28.832 187.453C-.987 157.634.294 108.008.294 108.008s49.626-1.28 79.445 28.539c27.256 27.255 28.53 71.058 28.547 78.389.018-7.331 1.292-51.134 28.547-78.389 29.819-29.819 79.445-28.539 79.445-28.539s1.281 49.626-28.539 79.445c-29.819 29.819-79.445 28.539-79.445 28.539s-.007-.256-.008-.741c-.001.485-.008.741-.008.741s-49.626 1.28-79.446-28.539z" fill="currentColor"/></svg><svg fill="none" viewBox="0 0 247 113" id="icon-infinity" xmlns="http://www.w3.org/2000/svg"><path d="M189.695 113c-27.993 0-47.837-19.519-66.195-40.867C104.989 93.612 85.206 113 57.305 113 25.982 113 .5 87.654.5 56.5S25.982 0 57.306 0c28.002 0 48.451 19.919 66.194 40.445C141.233 19.94 161.702 0 189.695 0 221.021 0 246.5 25.346 246.5 56.5S221.008 113 189.695 113zm-52.757-56.706c16.615 19.488 32.677 36.16 52.757 36.16 20.02 0 36.305-16.117 36.305-35.944 0-19.816-16.285-35.943-36.305-35.943-20.377-.01-36.429 16.569-52.757 35.727zM57.306 20.557C37.286 20.557 21 36.683 21 56.5c0 19.827 16.287 35.943 36.306 35.943 20.182 0 36.295-16.818 52.756-36.169-16.348-19.138-32.39-35.717-52.756-35.717z" fill="currentColor"/></svg><svg fill="none" viewBox="0 0 116 219" id="icon-keyhole" xmlns="http://www.w3.org/2000/svg"><path d="M115.714 57.05C115.714 25.538 90.13 0 58.577 0 27.025 0 1.441 25.541 1.441 57.05c0 21.602 12.032 40.401 29.778 50.086L.714 219H115.56L85.162 107.524c18.16-9.562 30.552-28.565 30.552-50.475z" fill="currentColor"/></svg><svg fill="none" viewBox="0 0 205 205" id="icon-leaf" xmlns="http://www.w3.org/2000/svg"><path d="M204.699.015s2.423 93.936-54.02 150.379C94.236 206.837.301 204.413.301 204.413s-2.424-93.935 54.02-150.378C110.762-2.408 204.698.015 204.698.015z" fill="currentColor"/></svg><svg fill="none" viewBox="0 0 144 253" id="icon-lightning" xmlns="http://www.w3.org/2000/svg"><path d="M112.057 0L.557 142H51.99L32.057 253l111.5-142H92.124L112.057 0z" fill="currentColor"/></svg><svg fill="none" viewBox="0 0 139 207" id="icon-orange-ricky" xmlns="http://www.w3.org/2000/svg"><path fill-rule="evenodd" clip-rule="evenodd" d="M69.576 0h-69v207h138v-69h-69V0z" fill="currentColor"/></svg><svg fill="none" viewBox="0 0 219 218" id="icon-portal" xmlns="http://www.w3.org/2000/svg"><path fill-rule="evenodd" clip-rule="evenodd" d="M109.286 218c-.218-60.125-48.935-108.798-109-108.798 60.199 0 109-48.892 109-109.202.217 60.125 48.935 108.798 109 108.798-60.2 0-109 48.892-109 109.202z" fill="currentColor"/></svg><svg fill="none" viewBox="0 0 282 141" id="icon-rainbow" xmlns="http://www.w3.org/2000/svg"><path fill-rule="evenodd" clip-rule="evenodd" d="M186.907 141H282C282 63.128 218.872 0 141 0S0 63.128 0 141h95.093c0-25.354 20.553-45.907 45.907-45.907 25.354 0 45.907 20.553 45.907 45.907z" fill="currentColor"/></svg><svg fill="none" viewBox="0 0 206 206" id="icon-rectangle" xmlns="http://www.w3.org/2000/svg"><path fill="currentColor" d="M0 0h206v206H0z"/></svg><svg fill="none" viewBox="0 0 139 207" id="icon-rhode-island" xmlns="http://www.w3.org/2000/svg"><path fill-rule="evenodd" clip-rule="evenodd" d="M69.576 0h-69v138h69v69h69V69h-69V0z" fill="currentColor"/></svg><svg fill="none" viewBox="0 0 202 240" id="icon-shield" xmlns="http://www.w3.org/2000/svg"><path fill-rule="evenodd" clip-rule="evenodd" d="M.557 12.959c64.624-17.278 136.376-17.278 201 0v114.293C201.557 184.396 101.055 240 101.055 240S.557 184.406.557 127.252V12.959z" fill="currentColor"/></svg><svg fill="none" viewBox="0 0 229 229" id="icon-smile" xmlns="http://www.w3.org/2000/svg"><path fill-rule="evenodd" clip-rule="evenodd" d="M229 114.5c0 63.237-51.263 114.5-114.5 114.5S0 177.737 0 114.5 51.263 0 114.5 0 229 51.263 229 114.5zM83.967 94.993c10.773 0 19.507-8.734 19.507-19.508 0-10.773-8.734-19.507-19.507-19.507-10.774 0-19.508 8.734-19.508 19.507 0 10.774 8.734 19.508 19.508 19.508zm61.066 0c10.774 0 19.508-8.734 19.508-19.508 0-10.773-8.734-19.507-19.508-19.507-10.773 0-19.507 8.734-19.507 19.507 0 10.774 8.734 19.508 19.507 19.508zm-29.685 59.37c-26.231 0-47.496-21.265-47.496-47.496H47.496c0 37.473 30.379 67.852 67.852 67.852 37.474 0 67.852-30.379 67.852-67.852h-20.356c0 26.231-21.264 47.496-47.496 47.496z" fill="currentColor"/></svg><svg fill="none" viewBox="0 0 268 268" id="icon-soft-star" xmlns="http://www.w3.org/2000/svg"><path d="M130.424 3.177c.503-4.236 6.649-4.236 7.152 0l4.216 35.532c5.444 45.881 41.618 82.055 87.499 87.499l35.532 4.216c4.236.503 4.236 6.649 0 7.152l-35.532 4.216c-45.881 5.444-82.055 41.618-87.499 87.499l-4.216 35.532c-.503 4.236-6.649 4.236-7.152 0l-4.216-35.532c-5.444-45.881-41.618-82.055-87.5-87.499l-35.531-4.216c-4.236-.503-4.236-6.649 0-7.152l35.532-4.216c45.881-5.444 82.055-41.618 87.499-87.5l4.216-35.531z" fill="currentColor"/></svg><svg fill="none" viewBox="0 0 204 203" id="icon-stairs" xmlns="http://www.w3.org/2000/svg"><path d="M.576 0h67.667v67.667h67.666v67.666h67.667V203h-203V0z" fill="currentColor"/></svg><svg fill="none" viewBox="0 0 232 232" id="icon-summertime-sadness" xmlns="http://www.w3.org/2000/svg"><path d="M58 0C25.968 0 0 25.968 0 58c0 32.033 25.968 58 58 58-32.032 0-58 25.967-58 58s25.968 58 58 58c32.033 0 58-25.967 58-58 0 32.033 25.967 58 58 58s58-25.967 58-58-25.967-58-58-58c32.033 0 58-25.967 58-58 0-32.032-25.967-58-58-58s-58 25.968-58 58c0-32.032-25.967-58-58-58z" fill="currentColor"/></svg><svg fill="none" viewBox="0 0 218 217" id="icon-team" xmlns="http://www.w3.org/2000/svg"><path fill-rule="evenodd" clip-rule="evenodd" d="M217.286 36.5c0 18.096-13.168 33.115-30.445 36 17.277 2.885 30.445 17.905 30.445 36s-13.168 33.115-30.445 36c17.277 2.885 30.445 17.905 30.445 36 0 20.158-16.342 36.5-36.5 36.5-18.095 0-33.115-13.168-36-30.445-2.885 17.277-17.905 30.445-36 30.445s-33.115-13.168-36-30.445C69.9 203.832 54.88 217 36.786 217c-20.159 0-36.5-16.342-36.5-36.5 0-18.095 13.168-33.115 30.444-36-17.276-2.885-30.444-17.905-30.444-36s13.168-33.115 30.444-36C13.454 69.615.286 54.596.286 36.5.286 16.342 16.627 0 36.786 0c18.095 0 33.115 13.168 36 30.445C75.67 13.168 90.69 0 108.786 0s33.115 13.168 36 30.445C147.671 13.168 162.691 0 180.786 0c20.158 0 36.5 16.342 36.5 36.5zm-144.5 6.056C70.23 57.861 58.148 69.944 42.84 72.5c15.307 2.556 27.389 14.638 29.945 29.945C75.342 87.138 87.424 75.056 102.73 72.5c-15.307-2.556-27.39-14.638-29.945-29.944zM114.84 72.5c15.307-2.556 27.389-14.638 29.945-29.944 2.556 15.306 14.638 27.388 29.945 29.944-15.307 2.556-27.389 14.638-29.945 29.945-2.556-15.307-14.638-27.389-29.945-29.945zm29.945 101.945c2.556-15.307 14.638-27.389 29.945-29.945-15.307-2.556-27.389-14.638-29.945-29.945-2.556 15.307-14.638 27.389-29.945 29.945 15.307 2.556 27.389 14.638 29.945 29.945zm-72-59.89c2.556 15.307 14.638 27.389 29.945 29.945-15.307 2.556-27.39 14.638-29.945 29.945-2.556-15.307-14.638-27.389-29.945-29.945 15.307-2.556 27.389-14.638 29.945-29.945z" fill="currentColor"/></svg><svg fill="none" viewBox="0 0 208 138" id="icon-teewee" xmlns="http://www.w3.org/2000/svg"><path fill-rule="evenodd" clip-rule="evenodd" d="M69.576 0h69v69h69v69h-207V69h69V0z" fill="currentColor"/></svg><svg fill="none" viewBox="0 0 226 225" id="icon-transparency" xmlns="http://www.w3.org/2000/svg"><path fill-rule="evenodd" clip-rule="evenodd" d="M186.357 0h-11.715L225.5 50.858V39.142L186.357 0zM225.5 10.858L214.642 0H225.5v10.858zm0 68.284L146.357 0h-11.715L225.5 90.858V79.142zm0 40L106.357 0H94.642L225.5 130.858v-11.716zm0 40L66.357 0H54.642L225.5 170.858v-11.716zm0 40L26.357 0H14.642L225.5 210.858v-11.716zM211.357 225L.5 14.142v11.716L199.642 225h11.715zm-40 0L.5 54.142v11.716L159.642 225h11.715zm-40 0L.5 94.142v11.716L119.642 225h11.715zm-40 0L.5 134.142v11.716L79.642 225h11.715zm-40 0L.5 174.142v11.716L39.642 225h11.715zm-40 0L.5 214.142V225h10.857z" fill="currentColor"/></svg><svg fill="none" viewBox="0 0 255 261" id="icon-trust" xmlns="http://www.w3.org/2000/svg"><path fill-rule="evenodd" clip-rule="evenodd" d="M130.05 3.011C60.807 2.026.295 65.022 3.094 132.975l.001.041v.042c-.943 68.13 60.593 127.622 126.914 124.848l.041-.001h.042c66.501.912 124.527-59.607 121.817-124.806l-.002-.041v-.041c.856-65.374-58.189-122.385-121.772-119.691l-.042.002h-.042c-63.755-.844-119.315 57.218-116.68 119.646l.002.041v.041c-.782 62.625 55.8 117.145 116.634 114.535l.041-.001h.042c60.986.75 114.127-54.793 111.541-114.488l-.002-.042v-.041c.729-59.867-53.424-111.913-111.492-109.377l-.042.001h-.041C71.803 22.97 21.157 76.033 23.65 132.971l.001.042v.041c-.641 57.117 51.02 106.678 106.354 104.221l.041-.001h.042c55.504.605 103.688-49.987 101.265-104.17l-.002-.041v-.042c.569-54.365-48.626-101.436-101.212-99.064l-.041.002h-.041c-52.761-.513-98.479 47.573-96.13 99.01l.002.041v.042c-.5 51.61 46.236 96.205 96.073 93.908l.041-.002h.042c50.023.444 93.246-45.174 90.99-93.852l-.002-.041v-.041c.414-48.83-43.832-90.994-90.93-88.751l-.042.002h-.042c-47.278-.391-88.035 42.79-85.854 88.691l.002.041v.041c-.341 46.086 41.438 85.749 85.791 83.596l.042-.002h.041c44.532.304 82.823-40.377 80.716-83.532l-.002-.041v-.041c.269-43.315-39.043-80.523-80.649-78.44l-.041.002h-.042c-41.791-.236-77.597 37.987-75.58 78.372l.002.041v.041c-.177 40.576 36.639 75.288 75.509 73.285l.042-.002h.041c39.046.163 72.39-35.583 70.442-73.213l-.002-.04v-.041c.111-37.814-34.247-70.048-70.366-68.13l-.042.003h-.041c-36.278-.077-67.198 33.175-65.307 68.05l.002.042v.041c-.057 35.072 31.87 64.812 65.226 62.974l.041-.002h.042c33.54.01 61.971-30.77 60.17-62.89l-.003-.041v-.042c-.028-32.298-29.469-59.59-60.081-57.819l-.042.003h-.042c-30.796.067-56.761 28.363-55.035 57.727l.002.041v.042c.1 29.566 27.071 54.337 54.94 52.666l.041-.003h.041c28.051-.147 51.551-25.953 49.901-52.565l-.002-.042-.001-.042c-.17-26.81-24.668-49.107-49.795-47.511l-.041.002h-.041c-25.31.22-46.327 23.546-44.768 47.402l.003.041v.041c.256 24.039 22.267 43.898 44.649 42.361l.043-.002.042-.001c22.568-.27 41.115-21.156 39.634-42.237l-.003-.041-.001-.041c-.325-21.278-19.866-38.673-39.5-37.211l-.043.003h-.042c-19.825.354-35.907 18.738-34.505 37.071l.003.041v.041c.394 18.532 17.464 33.427 34.355 32.064l.041-.004.042-.001c17.079-.42 30.698-16.324 29.377-31.9l-.004-.041-.001-.041c-.474-15.78-15.05-28.205-29.199-26.919l-.042.004-.043.001c-14.338.487-25.477 13.912-24.254 26.726l.004.041.002.04c.538 13.027 12.645 22.98 24.04 21.781l.042-.004.042-.002c11.581-.568 20.292-11.47 19.139-21.543l-.005-.043-.002-.043c-.575-10.261-10.242-17.744-18.87-16.648l-.042.005-.042.003c-8.835.619-15.094 9.049-14.038 16.341l.006.043.004.044c.643 7.515 7.796 12.528 13.676 11.544l.043-.008.043-.004c6.102-.66 9.883-6.581 8.969-11.107l-.009-.044-.006-.044c-.671-4.776-5.303-7.305-8.414-6.494l-.041.011-.042.008c-1.652.333-2.845 1.317-3.533 2.474-.71 1.194-.811 2.437-.499 3.26l.018.049.016.051c.289.961.914 1.512 1.534 1.762.705.285 1.174.121 1.262.054l.052-.04.056-.035.031-.02a1.5 1.5 0 01.636-2.783c1.615-.142 2.406 1.269 2.52 2.235.131 1.115-.373 2.316-1.537 3.074-1.191.864-2.833.826-4.143.297-1.402-.566-2.695-1.775-3.269-3.63-.682-1.853-.311-4.032.744-5.807a8.262 8.262 0 015.479-3.873c4.935-1.257 11.169 2.548 12.094 8.945 1.243 6.302-3.807 13.771-11.552 14.635-7.656 1.252-16.305-5.064-17.114-14.211-1.28-9.042 6.274-18.957 16.762-19.716 10.376-1.291 21.505 7.505 22.198 19.418 1.323 11.801-8.692 24.16-21.936 24.834-13.14 1.356-26.678-9.931-27.308-24.605-1.36-14.52 11.079-29.398 27.1-29.968 15.885-1.416 31.878 12.349 32.425 29.78 1.441 17.282-13.492 34.624-32.253 35.111-18.617 1.477-37.099-14.76-37.552-34.952-1.506-20.034 15.895-39.847 37.404-40.256 21.363-1.564 42.305 17.183 42.68 40.119 1.575 22.777-18.294 45.09-42.55 45.405-24.106 1.629-47.514-19.584-47.812-45.284-1.644-25.553 20.7-50.298 47.697-50.556 26.842-1.678 52.738 21.969 52.944 50.448 1.729 28.309-23.104 55.527-52.841 55.709-29.583 1.749-57.948-24.376-58.078-55.612-1.8-31.058 25.5-60.765 57.984-60.861 32.33-1.845 63.158 26.807 63.213 60.772 1.871 33.813-27.896 66.002-63.127 66.017-35.067 1.906-68.383-29.191-68.349-65.935-1.957-36.568 30.303-71.225 68.27-71.17 37.834-1.984 73.575 31.612 73.484 71.094 2.01 39.318-32.671 76.472-73.41 76.327-40.585 2.066-78.782-34.012-78.622-76.256-2.077-42.072 35.068-81.7 78.553-81.48 43.319-2.144 84.012 36.43 83.757 81.414 2.164 44.844-37.468 86.928-83.693 86.637-46.065 2.211-89.224-38.818-88.895-86.575-2.236-47.588 39.862-92.172 88.835-91.793 48.81-2.298 94.434 41.233 94.032 91.734 2.309 50.366-42.258 97.384-93.975 96.95-51.546 2.351-99.662-43.61-99.17-96.894-2.401-53.127 44.663-102.61 99.116-102.106 54.295-2.424 104.868 46.014 104.307 102.053 2.473 55.872-47.058 107.861-104.256 107.263-57.042 2.507-110.08-48.422-109.445-107.213C18.109 74.435 70.1 19.976 130.047 20.643c59.777-2.585 115.306 50.83 114.583 112.371 2.634 61.383-51.856 118.322-114.536 117.576-62.543 2.658-120.5-53.233-119.721-117.531C7.69 68.947 64.596 9.487 130.048 10.327c65.294-2.741 125.712 55.642 124.859 122.689 2.755 66.883-56.618 128.799-124.816 127.889C62.063 263.725-.846 202.861.095 133.057-2.75 63.405 59.136-.998 130.093.012a1.5 1.5 0 11-.043 3z" fill="currentColor"/></svg><svg fill="none" viewBox="0 0 267 151" id="icon-warm" xmlns="http://www.w3.org/2000/svg"><path d="M5.366 39.509A4.869 4.869 0 00.5 34.638V0c21.797 0 39.468 17.689 39.468 39.509v71.982a4.869 4.869 0 004.865 4.871 4.869 4.869 0 004.866-4.871V39.509C49.7 17.689 67.37 0 89.167 0c21.797 0 39.467 17.689 39.467 39.509v71.982a4.869 4.869 0 004.866 4.871 4.869 4.869 0 004.866-4.871V39.509c0-21.82 17.67-39.509 39.467-39.509 21.798 0 39.468 17.689 39.468 39.509v71.982a4.868 4.868 0 004.866 4.871 4.869 4.869 0 004.866-4.871V39.509C227.033 17.689 244.703 0 266.5 0v34.638a4.869 4.869 0 00-4.866 4.871v71.982c0 21.82-17.67 39.509-39.467 39.509-21.798 0-39.468-17.689-39.468-39.509V39.509a4.868 4.868 0 00-4.866-4.871 4.869 4.869 0 00-4.866 4.871v71.982c0 21.82-17.67 39.509-39.467 39.509-21.797 0-39.467-17.689-39.467-39.509V39.509a4.869 4.869 0 00-4.866-4.871 4.868 4.868 0 00-4.866 4.871v71.982c0 21.82-17.67 39.509-39.468 39.509-21.797 0-39.467-17.689-39.467-39.509V39.509z" fill="currentColor"/></svg><svg fill="none" viewBox="0 0 248 184" id="icon-Ñheckmark" xmlns="http://www.w3.org/2000/svg"><path fill-rule="evenodd" clip-rule="evenodd" d="M90.769 129.598L220.576 0l26.848 26.892L90.769 183.294.576 93.246l26.848-26.891 63.345 63.243z" fill="currentColor"/></svg></svg>