<?xml version="1.0" encoding="utf-8"?><svg viewBox="0 0 2000 450.35" xmlns="http://www.w3.org/2000/svg" xmlns:xlink="http://www.w3.org/1999/xlink"><style>:root>svg{display:none}:root>svg:target{display:block}</style><svg fill="none" viewBox="0 0 42 42" id="icon-ai" xmlns="http://www.w3.org/2000/svg"><path d="M20.31 32.31h-4.188a2.416 2.416 0 01-2.275 1.616 2.423 2.423 0 110-4.846c1.053 0 1.941.676 2.275 1.615h4.187v-14.54h-5.346l-1.63-3.26c-.098.011-.193.029-.294.029a2.423 2.423 0 112.424-2.423 2.41 2.41 0 01-.681 1.678l1.18 2.36h4.347V.739c-4.028-2.234-9.151 1.039-10.574 4.05-.945.566-3.4 2.077-3.578 5.074-2.1 1.591-3.272 3.28-3.134 8.53-.855.922-1.765 2.048-2.023 3.418h4.918a2.415 2.415 0 012.274-1.616 2.423 2.423 0 110 4.847 2.415 2.415 0 01-2.274-1.616H1.02c.184.886.656 1.852 1.566 2.915-.783 3.013.744 5.873 2.884 7.771.703 2.658 3.942 5.396 6.664 5.598 1.761 2.856 5.858 2.74 8.175 1.126v-8.524zm21.001-8.603c0-3.902-2.124-6.123-2.124-6.123.687-5.751-.729-8.66-4.853-11.122h-5.947v2.572a2.416 2.416 0 011.616 2.274 2.423 2.423 0 11-4.847 0c0-1.053.676-1.94 1.615-2.274V4.846h6.177c-2.45-3.333-7.516-6.153-11.023-4.153V21.81h6.271l2.644-1.322c-.012-.098-.03-.193-.03-.294a2.423 2.423 0 112.424 2.423 2.41 2.41 0 01-1.679-.68l-2.977 1.488h-6.653V40.9c1.766 1.282 4.552 1.455 6.462.46v-7.582a2.415 2.415 0 01-1.616-2.274 2.423 2.423 0 114.847 0 2.415 2.415 0 01-1.615 2.274v6.061c.025-.044.057-.084.08-.13 2.715-.202 6.253-2.827 6.955-5.485 1.188-2.294 3.369-4.879 2.585-7.884 0 0 1.688-.339 1.688-2.633z" fill="currentColor"/></svg><svg fill="none" viewBox="0 0 16 16" id="icon-archive" xmlns="http://www.w3.org/2000/svg"><path d="M0 2a1 1 0 011-1h14a1 1 0 011 1v2a1 1 0 01-1 1v7.5a2.5 2.5 0 01-2.5 2.5h-9A2.5 2.5 0 011 12.5V5a1 1 0 01-1-1V2zm2 3v7.5A1.5 1.5 0 003.5 14h9a1.5 1.5 0 001.5-1.5V5H2zm13-3H1v2h14V2zM5 7.5a.5.5 0 01.5-.5h5a.5.5 0 010 1h-5a.5.5 0 01-.5-.5z" fill="currentColor"/></svg><svg fill="none" viewBox="0 0 16 16" id="icon-archive-fill" xmlns="http://www.w3.org/2000/svg"><path d="M12.643 15C13.979 15 15 13.845 15 12.5V5H1v7.5C1 13.845 2.021 15 3.357 15h9.286zM5.5 7h5a.5.5 0 010 1h-5a.5.5 0 010-1zM.8 1a.8.8 0 00-.8.8V3a.8.8 0 00.8.8h14.4A.8.8 0 0016 3V1.8a.8.8 0 00-.8-.8H.8z" fill="currentColor"/></svg><svg fill="none" viewBox="0 0 16 16" id="icon-arrow-down" xmlns="http://www.w3.org/2000/svg"><path fill-rule="evenodd" clip-rule="evenodd" d="M1.646 4.646a.5.5 0 01.708 0L8 10.293l5.646-5.647a.5.5 0 01.708.708l-6 6a.5.5 0 01-.708 0l-6-6a.5.5 0 010-.708z" fill="currentColor"/></svg><svg fill="none" viewBox="0 0 16 16" id="icon-arrow-right" xmlns="http://www.w3.org/2000/svg"><path fill-rule="evenodd" clip-rule="evenodd" d="M4.646 1.646a.5.5 0 01.708 0l6 6a.5.5 0 010 .708l-6 6a.5.5 0 01-.708-.708L10.293 8 4.646 2.354a.5.5 0 010-.708z" fill="currentColor"/></svg><svg fill="none" viewBox="0 0 16 16" id="icon-arrow-up" xmlns="http://www.w3.org/2000/svg"><path fill-rule="evenodd" clip-rule="evenodd" d="M8 15a.5.5 0 00.5-.5V2.707l3.146 3.147a.5.5 0 00.708-.708l-4-4a.5.5 0 00-.708 0l-4 4a.5.5 0 10.708.708L7.5 2.707V14.5a.5.5 0 00.5.5z" fill="currentColor"/></svg><svg fill="none" viewBox="0 0 16 16" id="icon-award" xmlns="http://www.w3.org/2000/svg"><path d="M9.669.864L8 0 6.331.864l-1.858.282-.842 1.68-1.337 1.32L2.6 6l-.306 1.854 1.337 1.32.842 1.68 1.858.282L8 12l1.669-.864 1.858-.282.842-1.68 1.337-1.32L13.4 6l.306-1.854-1.337-1.32-.842-1.68L9.669.864zm1.196 1.193l.684 1.365 1.086 1.072L12.387 6l.248 1.506-1.086 1.072-.684 1.365-1.51.229L8 10.874l-1.355-.702-1.51-.229-.684-1.365-1.086-1.072L3.614 6l-.25-1.506 1.087-1.072.684-1.365 1.51-.229L8 1.126l1.356.702 1.509.229z" fill="currentColor"/><path d="M4 11.794V16l4-1 4 1v-4.206l-2.018.306L8 13.126 6.018 12.1 4 11.794z" fill="currentColor"/></svg><svg fill="none" viewBox="0 0 16 16" id="icon-backpack2" xmlns="http://www.w3.org/2000/svg"><path d="M4.04 7.43a4 4 0 017.92 0 .5.5 0 11-.99.14 3 3 0 00-5.94 0 .5.5 0 11-.99-.14z" fill="currentColor"/><path fill-rule="evenodd" clip-rule="evenodd" d="M4 9.5a.5.5 0 01.5-.5h7a.5.5 0 01.5.5v4a.5.5 0 01-.5.5h-7a.5.5 0 01-.5-.5v-4zm1 .5v3h6v-3h-1v.5a.5.5 0 01-1 0V10H5z" fill="currentColor"/><path d="M6 2.341V2a2 2 0 114 0v.341c2.33.824 4 3.047 4 5.659v1.191l1.17.585a1.5 1.5 0 01.83 1.342V13.5a1.5 1.5 0 01-1.5 1.5h-1c-.456.607-1.182 1-2 1h-7a2.497 2.497 0 01-2-1h-1A1.5 1.5 0 010 13.5v-2.382a1.5 1.5 0 01.83-1.342L2 9.191V8a6.002 6.002 0 014-5.659zM7 2v.083a6.04 6.04 0 012 0V2a1 1 0 00-2 0zM3 13.5A1.5 1.5 0 004.5 15h7a1.5 1.5 0 001.5-1.5V8A5 5 0 003 8v5.5zM2 10.31l-.724.362a.5.5 0 00-.276.447V13.5a.5.5 0 00.5.5H2v-3.691zm12 0V14h.5a.5.5 0 00.5-.5v-2.382a.5.5 0 00-.276-.447L14 10.309z" fill="currentColor"/></svg><svg fill="none" viewBox="0 0 16 16" id="icon-backpack2-fill" xmlns="http://www.w3.org/2000/svg"><path d="M5 13h6v-3h-1v.5a.5.5 0 01-1 0V10H5v3z" fill="currentColor"/><path d="M6 2v.341C3.67 3.165 2 5.388 2 8v1.191l-1.17.585A1.5 1.5 0 000 11.118V13.5A1.5 1.5 0 001.5 15h1c.456.607 1.182 1 2 1h7c.818 0 1.544-.393 2-1h1a1.5 1.5 0 001.5-1.5v-2.382a1.5 1.5 0 00-.83-1.342L14 9.191V8a6.002 6.002 0 00-4-5.659V2a2 2 0 10-4 0zm2-1a1 1 0 011 1v.083a6.04 6.04 0 00-2 0V2a1 1 0 011-1zm0 3a4 4 0 013.96 3.43.5.5 0 11-.99.14 3 3 0 00-5.94 0 .5.5 0 11-.99-.14A4 4 0 018 4zM4.5 9h7a.5.5 0 01.5.5v4a.5.5 0 01-.5.5h-7a.5.5 0 01-.5-.5v-4a.5.5 0 01.5-.5z" fill="currentColor"/></svg><svg fill="none" viewBox="0 0 16 16" id="icon-behance" xmlns="http://www.w3.org/2000/svg"><path d="M4.654 3c.461 0 .887.035 1.278.14.39.07.711.216.996.391.286.176.497.426.641.747.14.32.216.711.216 1.137 0 .496-.106.922-.356 1.242-.215.32-.566.606-.997.817.606.176 1.067.496 1.348.922.281.426.461.957.461 1.563 0 .496-.105.922-.285 1.278a2.317 2.317 0 01-.782.887c-.32.215-.711.39-1.137.496a5.329 5.329 0 01-1.278.176L0 12.803V3h4.654zm-.285 3.978c.39 0 .71-.105.957-.285.246-.18.355-.497.355-.887 0-.216-.035-.426-.105-.567a.981.981 0 00-.32-.355c-.14-.07-.286-.14-.461-.176-.176-.035-.356-.035-.567-.035H2.17v2.31c0-.005 2.2-.005 2.2-.005zm.105 4.193c.215 0 .426-.035.606-.07.176-.035.356-.106.496-.216s.25-.215.356-.39c.07-.176.14-.391.14-.641 0-.496-.14-.852-.426-1.102-.285-.215-.676-.32-1.137-.32H2.17v2.734h2.305v.005zM11.332 11.136c.286.285.711.426 1.278.426.39 0 .746-.106 1.032-.286.285-.215.46-.426.53-.64h1.74c-.286.851-.712 1.457-1.278 1.848-.566.355-1.243.566-2.06.566a4.135 4.135 0 01-1.527-.285 2.827 2.827 0 01-1.137-.782 2.851 2.851 0 01-.712-1.172c-.175-.461-.25-.957-.25-1.528 0-.531.07-1.032.25-1.493.18-.46.426-.852.747-1.207.32-.32.711-.606 1.137-.782a4.018 4.018 0 011.493-.285c.606 0 1.137.105 1.598.355.46.25.817.532 1.102.958.285.39.496.851.641 1.348.07.496.105.996.07 1.563h-5.15c0 .58.21 1.11.496 1.396zm2.24-3.732c-.25-.25-.642-.391-1.103-.391-.32 0-.566.07-.781.176-.215.105-.356.25-.496.39a.957.957 0 00-.25.497c-.036.175-.07.32-.07.46h3.196c-.07-.526-.25-.882-.497-1.132zm-3.127-3.728h3.978v.957h-3.978v-.957z" fill="currentColor"/></svg><svg fill="none" viewBox="0 0 37 37" id="icon-boosty" xmlns="http://www.w3.org/2000/svg"><g clip-path="url(#akclip0_758_913)"><path d="M4.517 21.766L10.727.26h9.543l-1.924 6.667-.057.114-5.067 17.6h4.724c-1.981 4.933-3.524 8.8-4.629 11.6-8.724-.095-11.162-6.343-9.028-13.733m9.066 13.752L24.86 19.708h-4.876L24.232 9.1c7.276.762 10.704 6.495 8.685 13.428-2.152 7.448-10.876 13.734-19.371 13.734h-.19z" fill="currentColor"/></g><defs><clipPath id="akclip0_758_913"><path fill="currentColor" transform="translate(.61 .26)" d="M0 0h36v36H0z"/></clipPath></defs></svg><svg fill="none" viewBox="0 0 16 16" id="icon-bounding-box-circles" xmlns="http://www.w3.org/2000/svg"><path d="M2 1a1 1 0 100 2 1 1 0 000-2zM0 2a2 2 0 013.937-.5h8.126A2 2 0 1114.5 3.937v8.126a2 2 0 11-2.437 2.437H3.937A2 2 0 111.5 12.063V3.937A2 2 0 010 2zm2.5 1.937v8.126c.703.18 1.256.734 1.437 1.437h8.126a2.004 2.004 0 011.437-1.437V3.937A2.004 2.004 0 0112.063 2.5H3.937A2.004 2.004 0 012.5 3.937zM14 1a1 1 0 100 2 1 1 0 000-2zM2 13a1 1 0 100 2 1 1 0 000-2zm12 0a1 1 0 100 2 1 1 0 000-2z" fill="currentColor"/></svg><svg fill="none" viewBox="0 0 24 24" id="icon-clipboard-data" xmlns="http://www.w3.org/2000/svg"><path d="M6 16.5a1.5 1.5 0 013 0V18a1.5 1.5 0 01-3 0v-1.5zM15 10.5a1.5 1.5 0 013 0V18a1.5 1.5 0 01-3 0v-7.5zM10.5 13.5a1.5 1.5 0 013 0V18a1.5 1.5 0 01-3 0v-4.5z" fill="currentColor"/><path d="M6 2.25H4.5a3 3 0 00-3 3V21a3 3 0 003 3h15a3 3 0 003-3V5.25a3 3 0 00-3-3H18v1.5h1.5a1.5 1.5 0 011.5 1.5V21a1.5 1.5 0 01-1.5 1.5h-15A1.5 1.5 0 013 21V5.25a1.5 1.5 0 011.5-1.5H6v-1.5z" fill="currentColor"/><path d="M14.25 1.5a.75.75 0 01.75.75v1.5a.75.75 0 01-.75.75h-4.5A.75.75 0 019 3.75v-1.5a.75.75 0 01.75-.75h4.5zM9.75 0A2.25 2.25 0 007.5 2.25v1.5A2.25 2.25 0 009.75 6h4.5a2.25 2.25 0 002.25-2.25v-1.5A2.25 2.25 0 0014.25 0h-4.5z" fill="currentColor"/></svg><svg fill="none" viewBox="0 0 42 42" id="icon-code" xmlns="http://www.w3.org/2000/svg"><path d="M36.5 10.003v.497H26V0h.497a1.97 1.97 0 011.392.577l8.034 8.034c.37.37.577.87.577 1.392zm-11.156 3.122a1.975 1.975 0 01-1.969-1.969V0H6.969A1.969 1.969 0 005 1.969V40.03C5 41.12 5.881 42 6.969 42H34.53a1.969 1.969 0 001.969-1.969V13.125H25.344zM15.107 32.854a.44.44 0 01-.48.111.444.444 0 01-.146-.09l-5.321-4.99a.443.443 0 010-.646l5.32-4.988a.442.442 0 01.627.02l1.606 1.713a.443.443 0 01-.03.636l-3.345 2.942 3.344 2.943a.442.442 0 01.03.636l-1.605 1.713zm4.207 4.14l-2.252-.653a.443.443 0 01-.301-.549l5.04-17.36a.443.443 0 01.549-.302l2.251.654a.442.442 0 01.302.549l-5.04 17.36a.444.444 0 01-.549.302zm13.19-9.108l-5.32 4.988a.445.445 0 01-.627-.02l-1.606-1.713a.444.444 0 01.03-.636l3.345-2.942-3.344-2.943a.445.445 0 01-.03-.636l1.605-1.713a.444.444 0 01.627-.02l5.32 4.988a.443.443 0 010 .647z" fill="currentColor"/></svg><svg fill="none" viewBox="0 0 16 16" id="icon-codepen" xmlns="http://www.w3.org/2000/svg"><path d="M15.696 4.99L8.384.117a.695.695 0 00-.768 0L.304 4.99A.699.699 0 000 5.562v4.875a.7.7 0 00.304.572l7.312 4.875c.25.154.516.155.768 0l7.312-4.875a.7.7 0 00.304-.572V5.562a.7.7 0 00-.304-.571zM8.688 1.974l5.383 3.59-2.401 1.606-2.982-1.99V1.972zm-1.376 0v3.205L4.33 7.17 1.93 5.562l5.383-3.59zM1.375 6.848L3.098 8 1.375 9.15V6.848zm5.938 7.179l-5.384-3.59L4.33 8.83l2.982 1.991v3.206zM8 9.625L5.571 8 8 6.375 10.428 8 8 9.625zm.688 4.402V10.82L11.67 8.83l2.401 1.607-5.383 3.59zm5.937-4.876L12.902 8l1.723-1.152V9.15z" fill="currentColor"/></svg><svg fill="none" viewBox="0 0 16 16" id="icon-cup-hot" xmlns="http://www.w3.org/2000/svg"><path fill-rule="evenodd" clip-rule="evenodd" d="M.5 6a.5.5 0 00-.488.608l1.652 7.434A2.5 2.5 0 004.104 16h5.792a2.5 2.5 0 002.44-1.958l.131-.59a3 3 0 001.3-5.854l.221-.99A.5.5 0 0013.5 6H.5zM13 12.5a2.01 2.01 0 01-.316-.025l.867-3.898A2.001 2.001 0 0113 12.5zM2.64 13.825L1.123 7h11.754l-1.517 6.825A1.5 1.5 0 019.896 15H4.104a1.5 1.5 0 01-1.464-1.175z" fill="currentColor"/><path d="M4.4.8l-.003.004-.014.019a4.167 4.167 0 00-.204.31 2.327 2.327 0 00-.141.267c-.026.06-.034.092-.037.103v.004a.593.593 0 00.091.248c.075.133.178.272.308.445l.01.012c.118.158.26.347.37.543.112.2.22.455.22.745 0 .188-.065.368-.119.494a3.31 3.31 0 01-.202.388 5.444 5.444 0 01-.253.382l-.018.025-.005.008-.002.002A.5.5 0 013.6 4.2l.003-.004.014-.019a4.149 4.149 0 00.204-.31c.057-.093.107-.186.141-.267.026-.06.034-.092.037-.103a.593.593 0 00-.09-.252 4.334 4.334 0 00-.309-.445l-.01-.012a5.099 5.099 0 01-.37-.543A1.53 1.53 0 013 1.5c0-.188.065-.368.119-.494.059-.138.134-.274.202-.388a5.446 5.446 0 01.253-.382l.025-.035A.5.5 0 014.4.8zM7.4.8l-.003.004-.014.019a4.167 4.167 0 00-.204.31 2.327 2.327 0 00-.141.267c-.026.06-.034.092-.037.103v.004a.593.593 0 00.091.248c.075.133.178.272.308.445l.01.012c.118.158.26.347.37.543.112.2.22.455.22.745 0 .188-.065.368-.119.494a3.31 3.31 0 01-.202.388 5.444 5.444 0 01-.253.382l-.018.025-.005.008-.002.002A.5.5 0 016.6 4.2l.003-.004.014-.019a4.149 4.149 0 00.204-.31c.057-.093.107-.186.141-.267.026-.06.034-.092.037-.103a.593.593 0 00-.09-.252 4.334 4.334 0 00-.309-.445l-.01-.012a5.099 5.099 0 01-.37-.543A1.53 1.53 0 016 1.5c0-.188.065-.368.119-.494.059-.138.134-.274.202-.388a5.446 5.446 0 01.253-.382l.025-.035A.5.5 0 017.4.8zM10.4.8l-.003.004-.014.019a4.077 4.077 0 00-.204.31 2.337 2.337 0 00-.141.267c-.026.06-.034.092-.037.103v.004a.593.593 0 00.091.248c.075.133.178.272.308.445l.01.012c.118.158.26.347.37.543.112.2.22.455.22.745 0 .188-.065.368-.119.494-.059.138-.133.274-.202.388a5.385 5.385 0 01-.252.382l-.019.025-.005.008-.002.002A.5.5 0 019.6 4.2l.003-.004.014-.019a4.149 4.149 0 00.204-.31c.057-.093.107-.186.141-.267.026-.06.034-.092.037-.103a.593.593 0 00-.09-.252 4.334 4.334 0 00-.309-.445l-.01-.012a5.099 5.099 0 01-.37-.543A1.53 1.53 0 019 1.5c0-.188.065-.368.119-.494.059-.138.134-.274.202-.388a5.446 5.446 0 01.253-.382l.025-.035A.5.5 0 0110.4.8z" fill="currentColor"/></svg><svg fill="none" viewBox="0 0 16 16" id="icon-cup-hot-fill" xmlns="http://www.w3.org/2000/svg"><path fill-rule="evenodd" clip-rule="evenodd" d="M.5 6a.5.5 0 00-.488.608l1.652 7.434A2.5 2.5 0 004.104 16h5.792a2.5 2.5 0 002.44-1.958l.131-.59a3 3 0 001.3-5.854l.221-.99A.5.5 0 0013.5 6H.5zM13 12.5a2.01 2.01 0 01-.316-.025l.867-3.898A2.001 2.001 0 0113 12.5z" fill="currentColor"/><path d="M4.4.8l-.003.004-.014.019a4.167 4.167 0 00-.204.31 2.327 2.327 0 00-.141.267c-.026.06-.034.092-.037.103v.004a.593.593 0 00.091.248c.075.133.178.272.308.445l.01.012c.118.158.26.347.37.543.112.2.22.455.22.745 0 .188-.065.368-.119.494a3.31 3.31 0 01-.202.388 5.444 5.444 0 01-.253.382l-.018.025-.005.008-.002.002A.5.5 0 013.6 4.2l.003-.004.014-.019a4.149 4.149 0 00.204-.31c.057-.093.107-.186.141-.267.026-.06.034-.092.037-.103a.593.593 0 00-.09-.252 4.334 4.334 0 00-.309-.445l-.01-.012a5.099 5.099 0 01-.37-.543A1.53 1.53 0 013 1.5c0-.188.065-.368.119-.494.059-.138.134-.274.202-.388a5.446 5.446 0 01.253-.382l.025-.035A.5.5 0 014.4.8zM7.4.8l-.003.004-.014.019a4.167 4.167 0 00-.204.31 2.327 2.327 0 00-.141.267c-.026.06-.034.092-.037.103v.004a.593.593 0 00.091.248c.075.133.178.272.308.445l.01.012c.118.158.26.347.37.543.112.2.22.455.22.745 0 .188-.065.368-.119.494a3.31 3.31 0 01-.202.388 5.444 5.444 0 01-.253.382l-.018.025-.005.008-.002.002A.5.5 0 016.6 4.2l.003-.004.014-.019a4.149 4.149 0 00.204-.31c.057-.093.107-.186.141-.267.026-.06.034-.092.037-.103a.593.593 0 00-.09-.252 4.334 4.334 0 00-.309-.445l-.01-.012a5.099 5.099 0 01-.37-.543A1.53 1.53 0 016 1.5c0-.188.065-.368.119-.494.059-.138.134-.274.202-.388a5.446 5.446 0 01.253-.382l.025-.035A.5.5 0 017.4.8zM10.4.8l-.003.004-.014.019a4.077 4.077 0 00-.204.31 2.337 2.337 0 00-.141.267c-.026.06-.034.092-.037.103v.004a.593.593 0 00.091.248c.075.133.178.272.308.445l.01.012c.118.158.26.347.37.543.112.2.22.455.22.745 0 .188-.065.368-.119.494-.059.138-.133.274-.202.388a5.385 5.385 0 01-.252.382l-.019.025-.005.008-.002.002A.5.5 0 019.6 4.2l.003-.004.014-.019a4.149 4.149 0 00.204-.31c.057-.093.107-.186.141-.267.026-.06.034-.092.037-.103a.593.593 0 00-.09-.252 4.334 4.334 0 00-.309-.445l-.01-.012a5.099 5.099 0 01-.37-.543A1.53 1.53 0 019 1.5c0-.188.065-.368.119-.494.059-.138.134-.274.202-.388a5.446 5.446 0 01.253-.382l.025-.035A.5.5 0 0110.4.8z" fill="currentColor"/></svg><svg fill="none" viewBox="0 0 24 18" id="icon-email" xmlns="http://www.w3.org/2000/svg"><path d="M2.25 0A2.25 2.25 0 00.9 4.05l10.2 7.65a1.505 1.505 0 001.8 0l10.2-7.65A2.251 2.251 0 0021.75 0H2.25zM0 5.25V15c0 1.655 1.345 3 3 3h18c1.655 0 3-1.345 3-3V5.25L13.8 12.9a2.996 2.996 0 01-3.6 0L0 5.25z" fill="currentColor"/></svg><svg fill="none" viewBox="0 0 16 16" id="icon-envelope-fill" xmlns="http://www.w3.org/2000/svg"><path d="M.05 3.555A2 2 0 012 2h12a2 2 0 011.95 1.555L8 8.414.05 3.555zM0 4.697v7.104l5.803-3.558L0 4.697zM6.761 8.83l-6.57 4.027A2 2 0 002 14h12a2 2 0 001.808-1.144l-6.57-4.027L8 9.586l-1.239-.757zm3.436-.586L16 11.801V4.697l-5.803 3.546z" fill="currentColor"/></svg><svg fill="none" viewBox="0 0 42 42" id="icon-figma" xmlns="http://www.w3.org/2000/svg"><path d="M13.997 0a6.997 6.997 0 000 13.993C10.13 14.003 7 17.136 7 21a6.997 6.997 0 006.997 6.997A6.999 6.999 0 007 35.003a6.998 6.998 0 0013.993 0v-21H28a6.996 6.996 0 10-.309 13.99 6.996 6.996 0 00.312-13.99A6.997 6.997 0 0035 7.007C35 3.145 31.867 0 28.003 0H13.997z" fill="currentColor"/></svg><svg fill="none" viewBox="0 0 16 16" id="icon-folder-symlink" xmlns="http://www.w3.org/2000/svg"><path d="M11.798 8.271l-3.182 1.97c-.27.166-.616-.036-.616-.372V9.1s-2.571-.3-4 2.4c.571-4.8 3.143-4.8 4-4.8v-.769c0-.336.346-.538.616-.371l3.182 1.969c.27.166.27.576 0 .742z" fill="currentColor"/><path d="M.5 3l.04.87a1.99 1.99 0 00-.342 1.311l.637 7A2 2 0 002.826 14h10.348a2 2 0 001.991-1.819l.637-7A2 2 0 0013.81 3H9.828a2 2 0 01-1.414-.586l-.828-.828A2 2 0 006.172 1H2.5a2 2 0 00-2 2zm.694 2.09A1 1 0 012.19 4h11.62a1 1 0 01.996 1.09l-.636 7a1 1 0 01-.996.91H2.826a1 1 0 01-.995-.91l-.637-7zM6.172 2a1 1 0 01.707.293L7.586 3H2.19c-.24 0-.47.042-.683.12L1.5 2.98A1 1 0 012.5 2h3.672z" fill="currentColor"/></svg><svg fill="none" viewBox="0 0 16 16" id="icon-geo-alt-fill" xmlns="http://www.w3.org/2000/svg"><path d="M8 16s6-5.686 6-10A6 6 0 002 6c0 4.314 6 10 6 10zm0-7a3 3 0 110-6 3 3 0 010 6z" fill="currentColor"/></svg><svg fill="none" viewBox="0 0 42 42" id="icon-git" xmlns="http://www.w3.org/2000/svg"><path d="M9.563 8.531a1.964 1.964 0 001.968-1.969 1.964 1.964 0 00-1.969-1.968 1.964 1.964 0 00-1.968 1.968c0 1.092.877 1.97 1.968 1.97zm6.562-1.969a6.55 6.55 0 01-3.938 6.013v7.203a10.44 10.44 0 015.25-1.403h7.875a5.255 5.255 0 005.25-5.25v-.55a6.55 6.55 0 01-3.937-6.012A6.56 6.56 0 0133.188 0a6.56 6.56 0 016.562 6.563 6.55 6.55 0 01-3.938 6.012v.55c0 5.8-4.7 10.5-10.5 10.5h-7.875a5.255 5.255 0 00-5.25 5.25v.55a6.55 6.55 0 013.938 6.012A6.56 6.56 0 019.562 42 6.56 6.56 0 013 35.437a6.55 6.55 0 013.938-6.012v-16.85A6.55 6.55 0 013 6.563 6.56 6.56 0 019.563 0a6.56 6.56 0 016.562 6.563zm19.031 0a1.964 1.964 0 00-1.968-1.968 1.964 1.964 0 00-1.97 1.968c0 1.092.878 1.97 1.97 1.97a1.964 1.964 0 001.968-1.97zM9.563 37.407a1.964 1.964 0 001.968-1.968 1.964 1.964 0 00-1.969-1.97 1.964 1.964 0 00-1.968 1.97c0 1.09.877 1.968 1.968 1.968z" fill="currentColor"/></svg><svg fill="none" viewBox="0 0 16 16" id="icon-github" xmlns="http://www.w3.org/2000/svg"><path d="M8 0C3.58 0 0 3.58 0 8c0 3.54 2.29 6.53 5.47 7.59.4.07.55-.17.55-.38 0-.19-.01-.82-.01-1.49-2.01.37-2.53-.49-2.69-.94-.09-.23-.48-.94-.82-1.13-.28-.15-.68-.52-.01-.53.63-.01 1.08.58 1.23.82.72 1.21 1.87.87 2.33.66.07-.52.28-.87.51-1.07-1.78-.2-3.64-.89-3.64-3.95 0-.87.31-1.59.82-2.15-.08-.2-.36-1.02.08-2.12 0 0 .67-.21 2.2.82.64-.18 1.32-.27 2-.27.68 0 1.36.09 2 .27 1.53-1.04 2.2-.82 2.2-.82.44 1.1.16 1.92.08 2.12.51.56.82 1.27.82 2.15 0 3.07-1.87 3.75-3.65 3.95.29.25.54.73.54 1.48 0 1.07-.01 1.93-.01 2.2 0 .21.15.46.55.38A8.012 8.012 0 0016 8c0-4.42-3.58-8-8-8z" fill="currentColor"/></svg><svg fill="none" viewBox="0 0 42 42" id="icon-google" xmlns="http://www.w3.org/2000/svg"><path d="M21.003 42C9.423 42 0 32.58 0 21S9.423 0 21.003 0A20.959 20.959 0 0135.15 5.475l.706.645-6.927 6.926-.642-.549a11.21 11.21 0 00-7.283-2.7C14.826 9.797 9.797 14.823 9.797 21s5.03 11.203 11.206 11.203c4.455 0 7.975-2.276 9.634-6.153H20.09v-9.455l20.59.029.154.724c1.073 5.097.214 12.593-4.138 17.958C33.094 39.745 27.816 42 21.004 42z" fill="currentColor"/></svg><svg fill="none" viewBox="0 0 42 42" id="icon-gsap" xmlns="http://www.w3.org/2000/svg"><path d="M21.383 17.447a.282.282 0 01-.282.272H18.2a.348.348 0 01-.35-.342c0-.846-.292-1.259-.892-1.259-.6 0-.986.368-.997 1.012-.013.717.393 1.369 1.547 2.488 1.52 1.426 2.13 2.69 2.1 4.359-.047 2.7-1.883 4.445-4.677 4.445-1.426 0-2.516-.381-3.24-1.134-.736-.764-1.074-1.886-1.003-3.334a.282.282 0 01.282-.272h3.002a.283.283 0 01.266.2c.01.034.011.07.005.104-.033.523.058.913.264 1.129.131.14.315.21.544.21.554 0 .88-.391.891-1.074.01-.59-.176-1.107-1.193-2.154-1.313-1.283-2.49-2.608-2.454-4.693.021-1.209.501-2.315 1.352-3.114.9-.844 2.13-1.29 3.558-1.29 1.43.01 2.515.418 3.223 1.213.67.753.992 1.841.957 3.234h-.001zM30.38 27.914l.018-14.36a.271.271 0 00-.272-.273h-4.492c-.15 0-.217.13-.26.216l-6.504 14.33v.002l-.003.003c-.072.177.065.366.256.366h3.14c.17 0 .282-.052.337-.159l.623-1.498c.077-.2.091-.219.31-.219h3c.208 0 .212.004.21.208l-.068 1.393a.27.27 0 00.271.275h3.172a.27.27 0 00.208-.094.235.235 0 00.053-.19zm-5.558-4.794a.84.84 0 01-.07-.003.075.075 0 01-.056-.031.077.077 0 01-.012-.063c.006-.02.015-.049.028-.083l2.25-5.567a1.57 1.57 0 01.07-.16c.036-.076.08-.08.094-.025.012.046-.258 5.715-.258 5.715-.021.212-.03.221-.24.239l-1.804-.021h-.004l.002-.001zM36.778 13.28h-2.384c-.126 0-.268.068-.3.218l-3.32 14.409a.217.217 0 00.046.187.294.294 0 00.224.104h2.981c.16 0 .27-.08.3-.215l.362-1.634c.025-.127-.019-.226-.133-.285a30.35 30.35 0 01-.16-.084l-.517-.269-.514-.268-.2-.103a.095.095 0 01-.052-.088.103.103 0 01.103-.1l1.633.008a7.82 7.82 0 001.458-.12c3.383-.625 5.629-3.334 5.694-7.02.055-3.147-1.7-4.74-5.218-4.74h-.003zm-.811 8.575h-.064c-.144 0-.169-.015-.173-.02-.002-.004.942-4.15.942-4.156.025-.12.024-.189-.05-.23-.095-.052-1.474-.779-1.474-.779a.098.098 0 01-.052-.088.101.101 0 01.102-.099h2.18c.678.02 1.057.628 1.039 1.665-.032 1.794-.885 3.644-2.45 3.707z" fill="currentColor"/><path d="M12.24 20.203v.007l-.552 2.398c-.03.136-.166.235-.322.235h-.668a.112.112 0 00-.107.08c-.616 2.09-1.45 3.526-2.55 4.388-.937.734-2.092 1.076-3.635 1.076-1.386 0-2.32-.445-3.113-1.326C.245 25.9-.187 23.994.075 21.701c.473-4.307 2.706-8.652 7.007-8.652 1.308-.011 2.335.392 3.05 1.198.756.852 1.14 2.135 1.141 3.815a.283.283 0 01-.282.276H7.84a.216.216 0 01-.21-.211c-.025-1.162-.37-1.727-1.054-1.727-1.208 0-1.92 1.64-2.299 2.548a9.564 9.564 0 00-.744 4.023c.026.64.128 1.538.736 1.911.538.33 1.306.111 1.771-.254.465-.366.839-1 .996-1.576.022-.08.024-.143.003-.17-.022-.03-.083-.036-.13-.036h-.81a.295.295 0 01-.225-.104.216.216 0 01-.044-.186l.553-2.403a.313.313 0 01.276-.232v-.006h5.31c.013 0 .026 0 .037.002.138.018.235.146.233.286h.001z" fill="currentColor"/></svg><svg fill="none" viewBox="0 0 42 42" id="icon-gulp" xmlns="http://www.w3.org/2000/svg"><path d="M29.416 0a.196.196 0 00-.131.047l-5.201 6.177-1.061 3.647a67.807 67.807 0 00-2.229-.033c-5.405 0-9.794.573-9.794 1.283 0 1.694 19.586 1.694 19.586 0 0-.525-2.345-.969-5.726-1.179l.84-3.002 4.864-5.851.009-.009c.109-.113-.104-.453-.452-.752-.26-.224-.534-.334-.705-.328zm-6.792 11.307l-.02.057c-.008.007-.008.016-.008.025 0 .105.424.191.941.191.517 0 .943-.086.943-.191l.017-.066c.136.05.21.105.21.17 0 .17-.524.308-1.178.3-.636 0-1.162-.128-1.162-.297 0-.073.104-.14.257-.19zm7.853.481c-2.592 1.382-16.747 1.391-19.349.02l1.152 10.125c.5-1.615 1.764-3.794 3.39-4.455.534-.218 1.075-.217 1.583.074.442.242.814.75.856.952.102.525-.168.732-.38.732-.255 0-.45-.369-.577-.587-.347-.59-.873-.615-1.433-.227-.585.403-1.093 1.081-1.449 1.67-.432.71-.797 1.493-1.017 2.275-.127.453-.244 1.177-.05 1.605.086.178.212.29.417.29.424 0 1.04-.532 1.337-.815.38-.362.872-.928 1.058-1.29l.443-1.25c.22-.549.837-.452.837 0 0 .823-.312 1.098-.845 2.8a279.861 279.861 0 00-.646 2.084c-.059.225-.288.604-.533.604-.102 0-.177-.034-.219-.098-.085-.114-.076-.425-.068-.506.017-.258.533-1.792.618-2.035-.17.178-.347.357-.542.534-.457.411-1.193.951-1.82.951-.289 0-.473-.074-.651-.194l.642 6.423c.17.403 3.322 1.38 7.473 1.38 4.16 0 7.31-.984 7.47-1.38l.925-7.632c-.483.42-1.041.938-1.66 1.195-.458.186-1.474.305-1.474-.462 0-.42.772-1.193 1.22-1.733.119-.138.396-.476.396-.654 0-.234-.507-.18-.99.2-.271.218-.527.51-.738.785a6.377 6.377 0 00-.72 1.249c-.524 1.145-.346.694-.77 1.775-.424 1.073-.355.951-.44 1.129a.79.79 0 01-.34.364.532.532 0 01-.516-.025c-.076-.049-.112-.154-.112-.298 0-.073.01-.146.027-.219.127-.493.661-1.46 1.271-2.767.136-.298.084-.21.066-.186-.525.485-.924.719-1.22.848-.49.21-1.101.21-1.227-.331-.009-.032-.008-.066-.017-.098-1 .742-2.058.943-1.692-.654-.39.662-1.069 1.203-1.9 1.203-.348 0-.602-.112-.728-.41-.195-.444.11-1.204.388-1.922.145-.363.342-.8.605-1.307.136-.275.354-.437.642-.364.05.017.095.034.137.058.22.145.135.36.025.58-.322.604-.602 1.048-.788 1.678-.076.266-.17.727.126.727.203 0 .397-.065.585-.194.39-.274.703-.685.94-1.088.17-.29.374-.67.476-.993a2.73 2.73 0 01.154-.388c.093-.201.219-.41.44-.41.11 0 .202.04.27.12.145.178.113.36.036.555-.17.453-.398.857-.585 1.348-.11.283-.23.645-.23.944 0 .274.314.209.577.095.203-.088.406-.223.577-.36.102-.395.075-.308 2.237-5.505.11-.266.314-.38.517-.38.102 0 .185.034.27.09.144.105.147.329.088.498-.059.154-.053.106-.383.848-.441.975-.728 1.68-1.118 2.575-.161.371-.652 1.525-.736 1.8-.05.177-.111.467.085.467.458 0 1.636-1.057 1.958-1.372.016-.024.043-.033.076-.05.05-.154.1-.297.142-.443.12-.306.23-.664.452-.913.067-.081.142-.128.226-.128.237 0 .356.095.356.322 0 .088-.058.412-.093.5.119-.12.244-.24.38-.36 1.271-1.122 2.177-.55 2.177.016 0 .597-.753 1.426-1.168 1.887-.136.154-.415.436-.424.517 0 .105.076.147.186.147.17 0 .542-.283.678-.38.425-.315.998-.798 1.406-1.137l1.255-11.039zM13.7 32.244l1.264 2.05.492 6.407c0 .718 2.397 1.299 5.346 1.299 2.948 0 5.345-.58 5.345-1.299l.391-6.472 1.192-1.985c-3.355 1.348-10.538 1.396-14.03 0z" fill="currentColor"/></svg><svg fill="none" viewBox="0 0 42 42" id="icon-handshake" xmlns="http://www.w3.org/2000/svg"><path d="M22.416 9.001a5.27 5.27 0 00-3.607 1.292l-5.527 5.034c-.757.734-.796 1.554.21 2.533 1.902 1.852 5.184 1.227 7.178-.513l3.616-2.636 10.582 11.365V12.743h-6.894l-1.655-1.923c-1.006-1.17-2.447-1.785-3.903-1.819zm-7.989.838c-1.832.008-3.708.86-4.757 2.45H7.22v15.098H9.67l4.016 4.453a2.138 2.138 0 103.168-2.872l2.23 2.506c.608.68 1.563.815 2.381.492a2.125 2.125 0 00.76-3.359l1.35 1.455c.687.766 1.774.875 2.665.45a2.246 2.246 0 00.625-3.516s-.516-.652 1.403 1.397c.625.667 1.577.804 2.405.494a2.225 2.225 0 001.085-3.192l-7.753-8.105-1.91 1.475c-3.617 2.953-8.336 2.414-11.289-1.203-.798-1.251-.19-2.495.54-3.276l4.867-4.47a5.592 5.592 0 00-1.786-.277zm22.437 1.098v17.841H42V10.937h-5.136zM0 10.96v17.841h5.136v-17.84H0z" fill="currentColor"/></svg><svg fill="none" viewBox="0 0 16 16" id="icon-house" xmlns="http://www.w3.org/2000/svg"><path d="M8.707 1.5a1 1 0 00-1.414 0L.646 8.146a.5.5 0 00.708.708L2 8.207V13.5A1.5 1.5 0 003.5 15h9a1.5 1.5 0 001.5-1.5V8.207l.646.647a.5.5 0 00.708-.708L13 5.793V2.5a.5.5 0 00-.5-.5h-1a.5.5 0 00-.5.5v1.293L8.707 1.5zM13 7.207V13.5a.5.5 0 01-.5.5h-9a.5.5 0 01-.5-.5V7.207l5-5 5 5z" fill="currentColor"/></svg><svg fill="none" viewBox="0 0 16 16" id="icon-house-fill" xmlns="http://www.w3.org/2000/svg"><path d="M8.707 1.5a1 1 0 00-1.414 0L.646 8.146a.5.5 0 00.708.708L8 2.207l6.646 6.647a.5.5 0 00.708-.708L13 5.793V2.5a.5.5 0 00-.5-.5h-1a.5.5 0 00-.5.5v1.293L8.707 1.5z" fill="currentColor"/><path d="M8 3.293l6 6V13.5a1.5 1.5 0 01-1.5 1.5h-9A1.5 1.5 0 012 13.5V9.293l6-6z" fill="#000"/></svg><svg fill="none" viewBox="0 0 42 42" id="icon-idea" xmlns="http://www.w3.org/2000/svg"><path d="M25.278.005c-4.878.147-8.847 4.25-8.847 9.15 0 2.66 1.387 4.736 2.61 6.569.578.863 1.127 1.697 1.498 2.531h4.108v-7.837l-1.558-1.559a.912.912 0 111.29-1.29l1.18 1.18 1.181-1.18a.912.912 0 111.29 1.29l-1.557 1.559v7.837h4.097c.367-.827.916-1.658 1.494-2.514 1.23-1.843 2.624-3.93 2.624-6.614a9.07 9.07 0 00-2.77-6.554 8.997 8.997 0 00-6.64-2.568zm-4.286 20.076c0 .018.003.032.003.046v1.78a2.744 2.744 0 002.739 2.738h.253c.318.542.899.913 1.573.913.674 0 1.255-.37 1.572-.913h.253a2.744 2.744 0 002.739-2.738V20.08h-9.132zm17.661 3.644a3.405 3.405 0 00-1.932.524l-8.537 5.26a3.574 3.574 0 011.027 2.5 3.594 3.594 0 01-4.418 3.494c-.699-.164-9.667-2.849-10.687-3.156a.913.913 0 11.524-1.747c3.983 1.195 10.095 3.013 10.587 3.13a1.768 1.768 0 002.168-1.722c0-.627-.328-1.19-.873-1.511-.264-.154-9.275-4.094-11.09-4.886a11.451 11.451 0 00-8.975-.085l-5.884 2.45c-.467.192-.563.613-.563 1.19v10.998c0 .502.41.913.913.913a.98.98 0 00.535-.175l3.18-2.336c1.623-1.19 3.784-1.451 5.684-.67l10.68 3.787a5.476 5.476 0 005.145-.799l14.367-10.887a3.433 3.433 0 00.956-4.667 3.435 3.435 0 00-2.807-1.605z" fill="currentColor"/></svg><svg fill="none" viewBox="0 0 42 42" id="icon-javascript" xmlns="http://www.w3.org/2000/svg"><path d="M39.336 0H2.668A2.669 2.669 0 000 2.668v36.664A2.669 2.669 0 002.668 42h36.664A2.668 2.668 0 0042 39.336V2.668A2.668 2.668 0 0039.336 0zM23 32.184C23 36.18 20.656 38 17.234 38c-3.093 0-5.324-2.074-6.234-4l3.145-1.902C14.75 33.172 15.672 34 17 34c1.27 0 2-.496 2-2.426V19h4v13.184zM31.676 38c-3.543 0-5.555-1.785-6.676-4l3-2c.816 1.336 1.707 2.613 3.59 2.613 1.582 0 2.41-.789 2.41-1.883 0-1.304-.86-1.769-2.598-2.53l-.953-.41c-2.754-1.173-4.586-2.642-4.586-5.75 0-2.86 2.184-5.04 5.59-5.04 2.426 0 4.168.844 5.426 3.055l-2.969 1.91c-.656-1.176-1.36-1.637-2.457-1.637-1.117 0-1.824.711-1.824 1.637 0 1.144.707 1.605 2.344 2.316l.953.41C36.172 28.079 38 29.497 38 32.684 38 36.117 35.3 38 31.676 38z" fill="currentColor"/></svg><svg fill="none" viewBox="0 0 16 16" id="icon-key-fill" xmlns="http://www.w3.org/2000/svg"><path d="M3.5 11.5a3.5 3.5 0 113.163-5H14L15.5 8 14 9.5l-1-1-1 1-1-1-1 1-1-1-1 1H6.663a3.5 3.5 0 01-3.163 2zM2.5 9a1 1 0 100-2 1 1 0 000 2z" fill="currentColor"/></svg><svg fill="none" viewBox="0 0 29 29" id="icon-maxuiux" xmlns="http://www.w3.org/2000/svg"><path d="M17.132 18.616v9.716a13.893 13.893 0 008.078-4.743l-5.753-5.921c-.841-.872-2.325-.276-2.325.948z" fill="currentColor"/><path d="M14.5.577c-7.727 0-14 6.273-14 14 0 6.487 4.422 11.95 10.404 13.526V8.059c0-.75.612-1.362 1.362-1.362h4.3c.367 0 .703.138.963.398l10.62 10.619c.229-1.01.351-2.066.351-3.137 0-7.727-6.273-14-14-14z" fill="currentColor"/></svg><svg fill="none" viewBox="0 0 29 29" id="icon-maxuiux-mini" xmlns="http://www.w3.org/2000/svg"><path d="M17.132 18.616v9.716a13.893 13.893 0 008.078-4.743l-5.753-5.921c-.841-.872-2.325-.276-2.325.948z" fill="currentColor"/><path d="M14.5.577c-7.727 0-14 6.273-14 14 0 6.487 4.422 11.95 10.404 13.526V8.059c0-.75.612-1.362 1.362-1.362h4.3c.367 0 .703.138.963.398l10.62 10.619c.229-1.01.351-2.066.351-3.137 0-7.727-6.273-14-14-14z" fill="currentColor"/></svg><svg fill="none" viewBox="0 0 16 16" id="icon-palette" xmlns="http://www.w3.org/2000/svg"><path d="M8 5a1.5 1.5 0 100-3 1.5 1.5 0 000 3zM12 8a1.5 1.5 0 100-3 1.5 1.5 0 000 3zM5.5 7a1.5 1.5 0 11-3 0 1.5 1.5 0 013 0zM6 13a1.5 1.5 0 100-3 1.5 1.5 0 000 3z" fill="currentColor"/><path d="M16 8c0 3.15-1.866 2.585-3.567 2.07C11.42 9.763 10.465 9.473 10 10c-.603.683-.475 1.819-.351 2.92C9.826 14.495 9.996 16 8 16a8 8 0 118-8zm-8 7c.611 0 .654-.171.655-.176.078-.146.124-.464.07-1.119-.014-.168-.037-.37-.061-.591-.052-.464-.112-1.005-.118-1.462-.01-.707.083-1.61.704-2.314.369-.417.845-.578 1.272-.618.404-.038.812.026 1.16.104.343.077.702.186 1.025.284l.028.008c.346.105.658.199.953.266.653.148.904.083.991.024C14.717 9.38 15 9.161 15 8a7 7 0 10-7 7z" fill="currentColor"/></svg><svg fill="none" viewBox="0 0 16 16" id="icon-palette-fill" xmlns="http://www.w3.org/2000/svg"><path d="M12.433 10.07C14.133 10.585 16 11.15 16 8a8 8 0 10-8 8c1.996 0 1.826-1.504 1.649-3.08-.124-1.101-.252-2.237.351-2.92.465-.527 1.42-.237 2.433.07zM8 5a1.5 1.5 0 110-3 1.5 1.5 0 010 3zm4.5 3a1.5 1.5 0 110-3 1.5 1.5 0 010 3zM5 6.5a1.5 1.5 0 11-3 0 1.5 1.5 0 013 0zm.5 6.5a1.5 1.5 0 110-3 1.5 1.5 0 010 3z" fill="currentColor"/></svg><svg fill="none" viewBox="0 0 16 16" id="icon-patch-check-fill" xmlns="http://www.w3.org/2000/svg"><path d="M10.067.87a2.89 2.89 0 00-4.134 0l-.622.638-.89-.011a2.89 2.89 0 00-2.924 2.924l.01.89-.636.622a2.89 2.89 0 000 4.134l.637.622-.011.89a2.89 2.89 0 002.924 2.924l.89-.01.622.636a2.89 2.89 0 004.134 0l.622-.637.89.011a2.89 2.89 0 002.924-2.924l-.01-.89.636-.622a2.89 2.89 0 000-4.134l-.637-.622.011-.89a2.89 2.89 0 00-2.924-2.924l-.89.01-.622-.636zm.287 5.984l-3 3a.5.5 0 01-.708 0l-1.5-1.5a.5.5 0 11.708-.708L7 8.793l2.646-2.647a.5.5 0 01.708.708z" fill="currentColor"/></svg><svg fill="none" viewBox="0 0 42 42" id="icon-photoshop" xmlns="http://www.w3.org/2000/svg"><path d="M3.818 0A3.817 3.817 0 000 3.818v34.364A3.817 3.817 0 003.818 42h34.364A3.817 3.817 0 0042 38.182V3.818A3.817 3.817 0 0038.182 0H3.818zm3.818 11.44h7.596c3.759 0 6.331 2.571 6.331 6.368 0 3.733-2.666 6.29-6.477 6.29h-4.083v6.175H7.636V11.44zm3.367 2.819v7.047h3.33c2.402 0 3.81-1.253 3.81-3.498 0-2.308-1.372-3.55-3.799-3.55h-3.34zm18.029 1.446c3.392 0 5.522 1.502 5.757 4.098h-3.04c-.234-1.004-1.189-1.644-2.702-1.644-1.474 0-2.585.706-2.585 1.737 0 .81.679 1.305 2.115 1.63l2.517.574c2.728.613 3.993 1.789 3.993 3.889 0 2.743-2.52 4.571-6.082 4.571s-5.807-1.542-6.055-4.138h3.2c.312 1.057 1.315 1.685 2.934 1.685 1.63 0 2.767-.717 2.767-1.775 0-.81-.612-1.32-1.97-1.622l-2.531-.585c-2.742-.627-4.03-1.892-4.03-4.046 0-2.585 2.344-4.374 5.712-4.374z" fill="currentColor"/></svg><svg fill="none" viewBox="0 0 170 170" id="icon-qr-code-boosty-donate" xmlns="http://www.w3.org/2000/svg"><path d="M73.78 72.666a5.566 5.566 0 1111.132 0 5.566 5.566 0 1111.133 0v.013c0 .155 0 .601-.085 1.1h4.538c1.229 0 2.226.998 2.226 2.227v2.227c0 1.23-.997 2.226-2.226 2.226H69.327a2.227 2.227 0 01-2.227-2.226v-2.227c0-1.23.997-2.226 2.227-2.226h4.537c-.085-.5-.084-.946-.084-1.101v-.013zm2.377 1.114h6.529v-1.114a3.34 3.34 0 00-6.68 0c0 .19.004.61.1.96.017.062.035.113.052.154zm10.982 0h6.528a1.28 1.28 0 00.051-.154c.096-.35.1-.77.1-.96a3.34 3.34 0 00-6.68 0v1.114zM100.498 82.686v16.698a3.34 3.34 0 01-3.34 3.34h-10.02V82.686h13.36zM72.666 102.724a3.34 3.34 0 01-3.34-3.34V82.686h13.36v20.038h-10.02zM49.864 6.032a3.016 3.016 0 100-6.032 3.016 3.016 0 000 6.032zM120.136 17.744a3.016 3.016 0 100-6.032 3.016 3.016 0 000 6.032zM61.576 41.168a3.016 3.016 0 100-6.032 3.016 3.016 0 000 6.032zM108.424 41.168a3.016 3.016 0 100-6.032 3.016 3.016 0 000 6.032zM85 58.736a3.016 3.016 0 100-6.032 3.016 3.016 0 000 6.032zM3.016 88.016a3.016 3.016 0 100-6.032 3.016 3.016 0 000 6.032zM114.28 93.872a3.016 3.016 0 100-6.032 3.016 3.016 0 000 6.032zM14.728 105.584a3.016 3.016 0 100-6.031 3.016 3.016 0 000 6.031zM49.864 105.584a3.016 3.016 0 100-6.032 3.016 3.016 0 000 6.032zM114.28 105.584a3.016 3.016 0 100-6.031 3.016 3.016 0 000 6.031zM38.152 111.44a3.016 3.016 0 100-6.032 3.016 3.016 0 000 6.032zM20.584 117.296a3.016 3.016 0 100-6.031 3.016 3.016 0 000 6.031zM67.432 117.296a3.016 3.016 0 100-6.031 3.016 3.016 0 000 6.031zM108.424 117.296a3.016 3.016 0 100-6.031 3.016 3.016 0 000 6.031zM14.728 123.152a3.016 3.016 0 100-6.031 3.016 3.016 0 000 6.031zM90.856 134.864a3.016 3.016 0 100-6.032 3.016 3.016 0 000 6.032zM131.848 134.864a3.016 3.016 0 100-6.031 3.016 3.016 0 000 6.031zM96.712 140.72a3.016 3.016 0 100-6.032 3.016 3.016 0 000 6.032zM161.128 140.72a3.016 3.016 0 100-6.031 3.016 3.016 0 000 6.031zM13.176 40.992h14.933c7.027 0 12.883-5.856 12.883-12.883V13.176C40.992 5.856 35.136 0 27.816 0H12.883C5.856 0 0 5.856 0 12.883v14.933c0 7.32 5.856 13.176 13.176 13.176zm21.96-26.938v12.884c0 4.392-3.806 8.198-8.198 8.198H14.054c-4.684 0-8.198-3.514-8.198-8.198V14.054c0-4.392 3.806-8.198 8.198-8.198h12.884c4.684 0 8.198 3.514 8.198 8.198zM142.008 40.992h14.933c7.027 0 12.883-5.856 12.883-12.883V13.176c0-7.32-5.856-13.176-13.176-13.176h-14.933c-7.027 0-12.883 5.856-12.883 12.883v14.933c0 7.32 5.856 13.176 13.176 13.176zm21.96-26.938v12.884c0 4.392-3.806 8.198-8.198 8.198h-12.883c-4.685 0-8.199-3.514-8.199-8.198V14.054c0-4.392 3.807-8.198 8.199-8.198h12.883c4.685 0 8.198 3.514 8.198 8.198zM13.176 169.824h14.933c7.027 0 12.883-5.856 12.883-12.883v-14.933c0-7.32-5.856-13.176-13.176-13.176H12.883C5.856 128.832 0 134.688 0 141.715v14.933c0 7.32 5.856 13.176 13.176 13.176zm21.96-26.937v12.883c0 4.392-3.806 8.198-8.198 8.198H14.054c-4.684 0-8.198-3.513-8.198-8.198v-12.883c0-4.392 3.806-8.199 8.198-8.199h12.884c4.684 0 8.198 3.514 8.198 8.199z" fill="currentColor"/><path d="M29.28 16.69v7.905c0 2.343-2.342 4.685-4.978 4.685H16.69c-2.928 0-4.978-2.05-4.978-4.978V16.69c0-2.636 2.342-4.978 4.978-4.978h7.905c2.636 0 4.685 2.05 4.685 4.978zM158.112 16.69v7.905c0 2.343-2.342 4.685-4.977 4.685h-7.613c-2.928 0-4.978-2.05-4.978-4.978V16.69c0-2.636 2.343-4.978 4.978-4.978h7.905c2.636 0 4.685 2.05 4.685 4.978zM29.28 145.522v7.905c0 2.343-2.342 4.685-4.978 4.685H16.69c-2.928 0-4.978-2.049-4.978-4.977v-7.613c0-2.635 2.342-4.978 4.978-4.978h7.905c2.636 0 4.685 2.05 4.685 4.978zM67.432 29.456c-1.709 0-3.016-1.307-3.016-3.016 0-1.71 1.307-3.016 3.016-3.016h11.712c1.709 0 3.016 1.307 3.016 3.016s-1.307 3.016-3.016 3.016H67.432zM58.56 3.016C58.56 1.306 59.867 0 61.576 0h5.856c1.709 0 3.016 1.307 3.016 3.016s-1.307 3.016-3.016 3.016h-2.84v5.68h2.84c1.709 0 3.016 1.307 3.016 3.016s-1.307 3.016-3.016 3.016h-2.84v2.84c0 1.709-1.307 3.016-3.016 3.016H55.72c-1.709 0-3.016-1.307-3.016-3.016 0-1.71 1.307-3.016 3.016-3.016h2.84v-5.68h-2.84c-1.709 0-3.016-1.307-3.016-3.016 0-1.71 1.307-3.016 3.016-3.016h2.84v-2.84z" fill="currentColor"/><path d="M76.128 3.016c0-1.71 1.307-3.016 3.016-3.016h11.712c1.709 0 3.016 1.307 3.016 3.016s-1.307 3.016-3.016 3.016h-2.84v5.68h2.84c1.709 0 3.016 1.307 3.016 3.016s-1.307 3.016-3.016 3.016h-2.84v2.84c0 1.709-1.307 3.016-3.016 3.016s-3.016-1.307-3.016-3.016v-8.696h-8.696c-1.709 0-3.016-1.307-3.016-3.016 0-1.71 1.307-3.016 3.016-3.016h2.84v-2.84zM99.552 3.016c0-1.71 1.307-3.016 3.016-3.016h17.568c1.709 0 3.016 1.307 3.016 3.016s-1.307 3.016-3.016 3.016h-14.552v2.84c0 1.709-1.307 3.016-3.016 3.016s-3.016-1.307-3.016-3.016V3.016zM96.712 52.88c-1.709 0-3.016-1.307-3.016-3.016s1.307-3.016 3.016-3.016h5.856c1.709 0 3.016 1.307 3.016 3.016s-1.307 3.016-3.016 3.016h-5.856zM163.968 49.864c0-1.709 1.307-3.016 3.016-3.016S170 48.155 170 49.864v5.856c0 1.709-1.307 3.016-3.016 3.016s-3.016-1.307-3.016-3.016v-5.856zM26.44 123.152c-1.71 0-3.016-1.307-3.016-3.016s1.307-3.016 3.016-3.016h11.712c1.709 0 3.016 1.307 3.016 3.016s-1.307 3.016-3.016 3.016H26.44zM3.016 76.304C1.306 76.304 0 74.997 0 73.288s1.307-3.016 3.016-3.016h5.856c1.709 0 3.016 1.307 3.016 3.016v5.856c0 1.709-1.307 3.016-3.016 3.016-1.71 0-3.016-1.307-3.016-3.016v-2.84h-2.84zM143.56 82.16c-1.709 0-3.016-1.307-3.016-3.016s1.307-3.016 3.016-3.016h5.856c1.709 0 3.016 1.307 3.016 3.016s-1.307 3.016-3.016 3.016h-5.856zM81.984 137.704c0-1.709 1.307-3.016 3.016-3.016s3.016 1.307 3.016 3.016v11.712c0 1.709-1.307 3.016-3.016 3.016s-3.016-1.307-3.016-3.016v-11.712zM46.848 26.44c0-1.71 1.307-3.016 3.016-3.016s3.016 1.307 3.016 3.016v2.84h2.84c1.709 0 3.016 1.307 3.016 3.016s-1.307 3.016-3.016 3.016h-2.84v2.84c0 1.709-1.307 3.016-3.016 3.016s-3.016-1.307-3.016-3.016V26.44zM70.272 38.152c0-1.71 1.307-3.016 3.016-3.016s3.016 1.307 3.016 3.016V55.72c0 1.709-1.307 3.016-3.016 3.016h-5.856c-1.709 0-3.016-1.307-3.016-3.016v-2.84h-2.84c-1.709 0-3.016-1.307-3.016-3.016s1.307-3.016 3.016-3.016h8.696v-8.696zM5.856 90.856c0-1.709 1.307-3.016 3.016-3.016s3.016 1.307 3.016 3.016v5.856c0 1.709-1.307 3.016-3.016 3.016h-2.84v20.408c0 1.709-1.307 3.016-3.016 3.016-1.71 0-3.016-1.307-3.016-3.016V96.712c0-1.709 1.307-3.016 3.016-3.016h2.84v-2.84zM158.112 67.432c0-1.709 1.307-3.016 3.016-3.016s3.016 1.307 3.016 3.016v2.84h2.84c1.709 0 3.016 1.307 3.016 3.016v5.856c0 1.709-1.307 3.016-3.016 3.016h-2.84V85c0 1.709-1.307 3.016-3.016 3.016s-3.016-1.307-3.016-3.016v-8.696h-2.84c-1.709 0-3.016-1.307-3.016-3.016s1.307-3.016 3.016-3.016h2.84v-2.84zM158.112 149.416c0-1.709 1.307-3.016 3.016-3.016h5.856c1.709 0 3.016 1.307 3.016 3.016s-1.307 3.016-3.016 3.016h-2.84v8.696c0 1.709-1.307 3.016-3.016 3.016s-3.016-1.307-3.016-3.016v-11.712zM158.112 114.28c0-1.709 1.307-3.016 3.016-3.016s3.016 1.307 3.016 3.016v8.696h2.84c1.709 0 3.016 1.307 3.016 3.016s-1.307 3.016-3.016 3.016h-5.856c-1.709 0-3.016-1.307-3.016-3.016v-2.84h-2.84c-1.709 0-3.016-1.307-3.016-3.016s1.307-3.016 3.016-3.016h2.84v-2.84zM99.552 143.56c0-1.709 1.307-3.016 3.016-3.016s3.016 1.307 3.016 3.016v5.856c0 1.709-1.307 3.016-3.016 3.016h-5.856c-1.709 0-3.016-1.307-3.016-3.016s1.307-3.016 3.016-3.016h2.84v-2.84zM96.712 23.6c-1.709 0-3.016-1.307-3.016-3.016 0-1.71 1.307-3.016 3.016-3.016h5.856c1.709 0 3.016 1.307 3.016 3.016v11.712c0 1.709-1.307 3.016-3.016 3.016h-2.84v2.84c0 1.709-1.307 3.016-3.016 3.016s-3.016-1.307-3.016-3.016v-2.84h-5.68v8.696c0 1.709-1.307 3.016-3.016 3.016s-3.016-1.307-3.016-3.016V32.296c0-1.71 1.307-3.016 3.016-3.016h14.552V23.6h-2.84z" fill="currentColor"/><path fill-rule="evenodd" clip-rule="evenodd" d="M8.872 52.88c-1.71 0-3.016-1.307-3.016-3.016s1.307-3.016 3.016-3.016h35.136c1.709 0 3.016 1.307 3.016 3.016s-1.307 3.016-3.016 3.016H23.6v5.68h23.248v-2.84c0-1.709 1.307-3.016 3.016-3.016h5.856c1.709 0 3.016 1.307 3.016 3.016v11.712c0 1.709-1.307 3.016-3.016 3.016s-3.016-1.307-3.016-3.016v-2.84H35.312v5.68h2.84c1.709 0 3.016 1.307 3.016 3.016s-1.307 3.016-3.016 3.016h-2.84v5.68h5.68v-2.84c0-1.709 1.307-3.016 3.016-3.016h2.84v-2.84c0-1.709 1.307-3.016 3.016-3.016s3.016 1.307 3.016 3.016v8.696h2.84c1.709 0 3.016 1.307 3.016 3.016s-1.307 3.016-3.016 3.016h-2.84v2.84c0 1.709-1.307 3.016-3.016 3.016h-5.856c-1.71 0-3.016-1.307-3.016-3.016v-2.84h-5.68v5.68h2.84c1.709 0 3.016 1.307 3.016 3.016s-1.307 3.016-3.016 3.016h-8.696v2.84c0 1.709-1.307 3.016-3.016 3.016-1.71 0-3.016-1.307-3.016-3.016v-5.856c0-1.709 1.307-3.016 3.016-3.016h2.84v-5.68H23.6v2.84c0 1.709-1.307 3.016-3.016 3.016-1.71 0-3.016-1.307-3.016-3.016V73.288c0-1.709 1.307-3.016 3.016-3.016h2.84v-5.68h-2.84c-1.71 0-3.016-1.307-3.016-3.016V52.88H8.872zM23.6 76.304h5.68v5.68H23.6v-5.68zM114.28 29.456c-1.709 0-3.016-1.307-3.016-3.016 0-1.71 1.307-3.016 3.016-3.016h5.856c1.709 0 3.016 1.307 3.016 3.016v17.568c0 1.709-1.307 3.016-3.016 3.016h-2.84v5.68h17.392v-2.84c0-1.709 1.307-3.016 3.016-3.016h5.856c1.709 0 3.016 1.307 3.016 3.016v2.84h8.696c1.709 0 3.016 1.307 3.016 3.016v5.856c0 1.709-1.307 3.016-3.016 3.016h-2.84v2.84c0 1.709-1.307 3.016-3.016 3.016h-8.696v2.84c0 1.709-1.307 3.016-3.016 3.016s-3.016-1.307-3.016-3.016v-2.84h-5.68v5.68h2.84c1.709 0 3.016 1.307 3.016 3.016v2.84h2.84c1.709 0 3.016 1.307 3.016 3.016s-1.307 3.016-3.016 3.016h-11.712c-1.709 0-3.016-1.307-3.016-3.016v-2.84h-8.696c-1.709 0-3.016-1.307-3.016-3.016V67.432c0-1.709 1.307-3.016 3.016-3.016h2.84v-5.68h-8.696c-1.709 0-3.016-1.307-3.016-3.016s1.307-3.016 3.016-3.016h2.84v-8.696c0-1.71 1.307-3.016 3.016-3.016h2.84V29.456h-2.84zm8.696 46.672h-5.68v-5.68h5.68v5.68z" fill="currentColor"/><path d="M81.984 114.28c0-1.709 1.307-3.016 3.016-3.016h11.712c1.709 0 3.016 1.307 3.016 3.016v2.84h2.84c1.709 0 3.016 1.307 3.016 3.016s-1.307 3.016-3.016 3.016h-2.84v2.84c0 1.709-1.307 3.016-3.016 3.016s-3.016-1.307-3.016-3.016v-2.84H82.16v8.696c0 1.709-1.307 3.016-3.016 3.016h-2.84v14.552c0 1.709-1.307 3.016-3.016 3.016s-3.016-1.307-3.016-3.016v-23.424c0-1.709 1.307-3.016 3.016-3.016h2.84v-2.84c0-1.709 1.307-3.016 3.016-3.016h2.84v-2.84z" fill="currentColor"/><path d="M46.848 114.28c0-1.709 1.307-3.016 3.016-3.016s3.016 1.307 3.016 3.016v2.84h8.696c1.709 0 3.016 1.307 3.016 3.016s-1.307 3.016-3.016 3.016H52.88v5.68h2.84c1.709 0 3.016 1.307 3.016 3.016v2.84h2.84c1.709 0 3.016 1.307 3.016 3.016v11.712c0 1.709-1.307 3.016-3.016 3.016s-3.016-1.307-3.016-3.016v-2.84h-5.68v5.68h2.84c1.709 0 3.016 1.307 3.016 3.016v2.84h5.68v-2.84c0-1.709 1.307-3.016 3.016-3.016s3.016 1.307 3.016 3.016v2.84H87.84v-2.84c0-1.709 1.307-3.016 3.016-3.016s3.016 1.307 3.016 3.016v2.84h2.84c1.709 0 3.016 1.307 3.016 3.016s-1.307 3.016-3.016 3.016h-2.84v2.84c0 1.709-1.307 3.016-3.016 3.016s-3.016-1.307-3.016-3.016v-2.84h-5.68v2.84c0 1.709-1.307 3.016-3.016 3.016s-3.016-1.307-3.016-3.016v-2.84H49.864c-1.709 0-3.016-1.307-3.016-3.016V114.28z" fill="currentColor"/><path fill-rule="evenodd" clip-rule="evenodd" d="M143.56 93.872c-1.709 0-3.016-1.307-3.016-3.016s1.307-3.016 3.016-3.016h5.856c1.709 0 3.016 1.307 3.016 3.016v2.84h2.84c1.709 0 3.016 1.307 3.016 3.016v2.84h5.68v-8.696c0-1.709 1.307-3.016 3.016-3.016S170 89.147 170 90.856v11.712c0 1.709-1.307 3.016-3.016 3.016h-14.552v8.696c0 1.709-1.307 3.016-3.016 3.016s-3.016-1.307-3.016-3.016v-2.84h-2.84c-1.709 0-3.016-1.307-3.016-3.016v-2.84h-5.68v11.536h8.696c1.709 0 3.016 1.307 3.016 3.016v2.84h2.84c1.709 0 3.016 1.307 3.016 3.016s-1.307 3.016-3.016 3.016h-2.84v5.68h2.84c1.709 0 3.016 1.307 3.016 3.016v2.84h2.84c1.709 0 3.016 1.307 3.016 3.016s-1.307 3.016-3.016 3.016H140.72v5.68h8.696c1.709 0 3.016 1.307 3.016 3.016v8.696h2.84c1.709 0 3.016 1.307 3.016 3.016S156.981 170 155.272 170H143.56c-1.709 0-3.016-1.307-3.016-3.016v-8.696h-17.392v2.84c0 1.709-1.307 3.016-3.016 3.016h-2.84v2.84c0 1.709-1.307 3.016-3.016 3.016h-11.712c-1.709 0-3.016-1.307-3.016-3.016s1.307-3.016 3.016-3.016h8.696v-5.68h-2.84c-1.709 0-3.016-1.307-3.016-3.016s1.307-3.016 3.016-3.016h2.84v-2.84c0-1.709 1.307-3.016 3.016-3.016h2.84v-5.68h-2.84c-1.709 0-3.016-1.307-3.016-3.016v-2.84h-2.84c-1.709 0-3.016-1.307-3.016-3.016s1.307-3.016 3.016-3.016h8.696v-5.68h-2.84c-1.709 0-3.016-1.307-3.016-3.016s1.307-3.016 3.016-3.016h14.552v-14.552c0-1.709 1.307-3.016 3.016-3.016h2.84v-2.84c0-1.709 1.307-3.016 3.016-3.016s3.016 1.307 3.016 3.016v2.84h5.68v-5.68h-2.84zm-14.552 52.704h5.68v5.68h-5.68v-5.68zm-5.856-6.032v-17.392h17.392v17.392h-17.392z" fill="currentColor"/></svg><svg fill="none" viewBox="0 0 170 170" id="icon-qr-code-boosty-subscribe" xmlns="http://www.w3.org/2000/svg"><path d="M49.864 6.032a3.016 3.016 0 100-6.032 3.016 3.016 0 000 6.032zM61.576 6.032a3.016 3.016 0 100-6.032 3.016 3.016 0 000 6.032zM73.288 6.032a3.016 3.016 0 100-6.032 3.016 3.016 0 000 6.032zM120.136 11.888a3.016 3.016 0 100-6.032 3.016 3.016 0 000 6.032zM61.576 41.168a3.016 3.016 0 100-6.032 3.016 3.016 0 000 6.032zM96.712 58.736a3.016 3.016 0 100-6.032 3.016 3.016 0 000 6.032zM108.424 58.736a3.016 3.016 0 100-6.032 3.016 3.016 0 000 6.032zM3.016 64.592a3.016 3.016 0 100-6.032 3.016 3.016 0 000 6.032zM114.28 93.872a3.016 3.016 0 100-6.032 3.016 3.016 0 000 6.032zM38.152 111.44a3.016 3.016 0 100-6.032 3.016 3.016 0 000 6.032zM49.864 111.44a3.016 3.016 0 100-6.032 3.016 3.016 0 000 6.032zM44.008 117.296a3.016 3.016 0 100-6.032 3.016 3.016 0 000 6.032zM108.424 117.296a3.016 3.016 0 100-6.031 3.016 3.016 0 000 6.031zM38.152 123.152a3.016 3.016 0 100-6.032 3.016 3.016 0 000 6.032zM90.856 134.864a3.016 3.016 0 100-6.032 3.016 3.016 0 000 6.032zM131.848 134.864a3.016 3.016 0 100-6.031 3.016 3.016 0 000 6.031zM161.128 140.72a3.016 3.016 0 100-6.031 3.016 3.016 0 000 6.031zM13.176 40.992h14.933c7.027 0 12.883-5.856 12.883-12.883V13.176C40.992 5.856 35.136 0 27.816 0H12.883C5.856 0 0 5.856 0 12.883v14.933c0 7.32 5.856 13.176 13.176 13.176zm21.96-26.938v12.884c0 4.392-3.806 8.198-8.198 8.198H14.054c-4.684 0-8.198-3.514-8.198-8.198V14.054c0-4.392 3.806-8.198 8.198-8.198h12.884c4.684 0 8.198 3.514 8.198 8.198zM142.008 40.992h14.933c7.027 0 12.883-5.856 12.883-12.883V13.176c0-7.32-5.856-13.176-13.176-13.176h-14.933c-7.027 0-12.883 5.856-12.883 12.883v14.933c0 7.32 5.856 13.176 13.176 13.176zm21.96-26.938v12.884c0 4.392-3.806 8.198-8.198 8.198h-12.883c-4.685 0-8.199-3.514-8.199-8.198V14.054c0-4.392 3.807-8.198 8.199-8.198h12.883c4.685 0 8.198 3.514 8.198 8.198zM13.176 169.824h14.933c7.027 0 12.883-5.856 12.883-12.883v-14.933c0-7.32-5.856-13.176-13.176-13.176H12.883C5.856 128.832 0 134.688 0 141.715v14.933c0 7.32 5.856 13.176 13.176 13.176zm21.96-26.937v12.883c0 4.392-3.806 8.198-8.198 8.198H14.054c-4.684 0-8.198-3.513-8.198-8.198v-12.883c0-4.392 3.806-8.199 8.198-8.199h12.884c4.684 0 8.198 3.514 8.198 8.199z" fill="currentColor"/><path d="M29.28 16.69v7.905c0 2.343-2.342 4.685-4.978 4.685H16.69c-2.928 0-4.978-2.05-4.978-4.978V16.69c0-2.636 2.342-4.978 4.978-4.978h7.905c2.636 0 4.685 2.05 4.685 4.978zM158.112 16.69v7.905c0 2.343-2.342 4.685-4.977 4.685h-7.613c-2.928 0-4.978-2.05-4.978-4.978V16.69c0-2.636 2.343-4.978 4.978-4.978h7.905c2.636 0 4.685 2.05 4.685 4.978zM29.28 145.522v7.905c0 2.343-2.342 4.685-4.978 4.685H16.69c-2.928 0-4.978-2.049-4.978-4.977v-7.613c0-2.635 2.342-4.978 4.978-4.978h7.905c2.636 0 4.685 2.05 4.685 4.978zM70.396 88.523l6.397-22.155h9.831l-1.981 6.868-.06.118-5.22 18.132h4.868c-2.041 5.082-3.63 9.066-4.769 11.951-8.987-.099-11.5-6.535-9.301-14.149m9.34 14.168l11.853-17.053H86.33l4.376-10.93c7.496.785 11.028 6.692 8.948 13.835-2.217 7.672-11.204 14.148-19.956 14.148H79.5zM81.984 3.016C81.984 1.306 83.291 0 85 0h17.568c1.709 0 3.016 1.307 3.016 3.016v5.856c0 1.709-1.307 3.016-3.016 3.016s-3.016-1.307-3.016-3.016v-2.84H88.016v2.84c0 1.709-1.307 3.016-3.016 3.016h-5.856c-1.709 0-3.016-1.307-3.016-3.016 0-1.71 1.307-3.016 3.016-3.016h2.84v-2.84z" fill="currentColor"/><path d="M87.84 14.728c0-1.71 1.307-3.016 3.016-3.016s3.016 1.307 3.016 3.016v5.856c0 1.709-1.307 3.016-3.016 3.016h-2.84v17.392h5.68v-2.84c0-1.71 1.307-3.016 3.016-3.016s3.016 1.307 3.016 3.016v2.84h5.68v-2.84c0-1.71 1.307-3.016 3.016-3.016s3.016 1.307 3.016 3.016v2.84h5.68V29.456h-2.84c-1.709 0-3.016-1.307-3.016-3.016 0-1.71 1.307-3.016 3.016-3.016h5.856c1.709 0 3.016 1.307 3.016 3.016v17.568c0 1.709-1.307 3.016-3.016 3.016h-2.84v2.84c0 1.709-1.307 3.016-3.016 3.016s-3.016-1.307-3.016-3.016v-2.84H93.872v2.84c0 1.709-1.307 3.016-3.016 3.016s-3.016-1.307-3.016-3.016v-2.84H85c-1.709 0-3.016-1.307-3.016-3.016V23.6h-5.68v14.552c0 1.709-1.307 3.016-3.016 3.016s-3.016-1.307-3.016-3.016V20.584c0-1.71 1.307-3.016 3.016-3.016H87.84v-2.84z" fill="currentColor"/><path d="M99.552 20.584c0-1.71 1.307-3.016 3.016-3.016s3.016 1.307 3.016 3.016v11.712c0 1.709-1.307 3.016-3.016 3.016s-3.016-1.307-3.016-3.016V20.584zM64.416 8.872c0-1.71 1.307-3.016 3.016-3.016s3.016 1.307 3.016 3.016v5.856c0 1.709-1.307 3.016-3.016 3.016s-3.016-1.307-3.016-3.016V8.872zM58.56 20.584c0-1.71 1.307-3.016 3.016-3.016s3.016 1.307 3.016 3.016v5.856c0 1.709-1.307 3.016-3.016 3.016h-2.84v2.84c0 1.709-1.307 3.016-3.016 3.016h-2.84v2.84c0 1.709-1.307 3.016-3.016 3.016s-3.016-1.307-3.016-3.016V26.44c0-1.71 1.307-3.016 3.016-3.016h8.696v-2.84zM55.72 52.88c-1.709 0-3.016-1.307-3.016-3.016s1.307-3.016 3.016-3.016h11.712c1.709 0 3.016 1.307 3.016 3.016v2.84h5.68v-2.84c0-1.709 1.307-3.016 3.016-3.016s3.016 1.307 3.016 3.016v2.84H85c1.709 0 3.016 1.307 3.016 3.016S86.709 58.736 85 58.736H61.576c-1.709 0-3.016-1.307-3.016-3.016v-2.84h-2.84zM163.968 49.864c0-1.709 1.307-3.016 3.016-3.016S170 48.155 170 49.864v5.856c0 1.709-1.307 3.016-3.016 3.016s-3.016-1.307-3.016-3.016v-5.856zM158.112 155.272c0-1.709 1.307-3.016 3.016-3.016s3.016 1.307 3.016 3.016v5.856c0 1.709-1.307 3.016-3.016 3.016s-3.016-1.307-3.016-3.016v-5.856zM79.144 129.008c-1.709 0-3.016-1.307-3.016-3.016s1.307-3.016 3.016-3.016H85c1.709 0 3.016 1.307 3.016 3.016s-1.307 3.016-3.016 3.016h-5.856zM61.576 117.296c-1.709 0-3.016-1.307-3.016-3.016s1.307-3.016 3.016-3.016h5.856c1.709 0 3.016 1.307 3.016 3.016s-1.307 3.016-3.016 3.016h-5.856zM3.016 76.304C1.306 76.304 0 74.997 0 73.288s1.307-3.016 3.016-3.016h5.856c1.709 0 3.016 1.307 3.016 3.016v2.84h2.84c1.709 0 3.016 1.307 3.016 3.016s-1.307 3.016-3.016 3.016H8.872c-1.71 0-3.016-1.307-3.016-3.016v-2.84h-2.84z" fill="currentColor"/><path d="M8.872 52.88c-1.71 0-3.016-1.307-3.016-3.016s1.307-3.016 3.016-3.016h35.136c1.709 0 3.016 1.307 3.016 3.016v20.408h8.696c1.709 0 3.016 1.307 3.016 3.016v17.568c0 1.709-1.307 3.016-3.016 3.016s-3.016-1.307-3.016-3.016V82.16h-5.68v20.408c0 1.709-1.307 3.016-3.016 3.016-1.71 0-3.016-1.307-3.016-3.016v-2.84h-8.696c-1.71 0-3.016-1.307-3.016-3.016s1.307-3.016 3.016-3.016h8.696v-5.68H29.456v2.84c0 1.709-1.307 3.016-3.016 3.016H11.888v5.68h8.696c1.709 0 3.016 1.307 3.016 3.016v8.696h8.696c1.709 0 3.016 1.307 3.016 3.016s-1.307 3.016-3.016 3.016H14.728c-1.71 0-3.016-1.307-3.016-3.016v-8.696h-5.68v14.552c0 1.709-1.307 3.016-3.016 3.016-1.71 0-3.016-1.307-3.016-3.016V96.712c0-1.709 1.307-3.016 3.016-3.016h2.84v-2.84c0-1.709 1.307-3.016 3.016-3.016h14.552v-8.696c0-1.709 1.307-3.016 3.016-3.016s3.016 1.307 3.016 3.016v2.84h11.536v-5.68h-8.696c-1.71 0-3.016-1.307-3.016-3.016s1.307-3.016 3.016-3.016h8.696v-5.68h-8.696c-1.71 0-3.016-1.307-3.016-3.016s1.307-3.016 3.016-3.016h8.696v-5.68H23.6v14.552c0 1.709-1.307 3.016-3.016 3.016-1.71 0-3.016-1.307-3.016-3.016V52.88H8.872z" fill="currentColor"/><path fill-rule="evenodd" clip-rule="evenodd" d="M46.848 120.136c0-1.709 1.307-3.016 3.016-3.016h5.856c1.709 0 3.016 1.307 3.016 3.016v8.696h2.84c1.709 0 3.016 1.307 3.016 3.016v8.696h2.84c1.709 0 3.016 1.307 3.016 3.016v5.856c0 1.709-1.307 3.016-3.016 3.016H52.88v5.68h2.84c1.709 0 3.016 1.307 3.016 3.016s-1.307 3.016-3.016 3.016h-5.856c-1.709 0-3.016-1.307-3.016-3.016v-40.992zm6.032 14.728h5.68v5.68h-5.68v-5.68z" fill="currentColor"/><path d="M73.288 140.72c-1.709 0-3.016-1.307-3.016-3.016s1.307-3.016 3.016-3.016H85c1.709 0 3.016 1.307 3.016 3.016S86.709 140.72 85 140.72h-2.84v8.696c0 1.709-1.307 3.016-3.016 3.016s-3.016-1.307-3.016-3.016v-8.696h-2.84zM155.272 123.152c-1.709 0-3.016-1.307-3.016-3.016s1.307-3.016 3.016-3.016h11.712c1.709 0 3.016 1.307 3.016 3.016V126c-.004 1.705-1.31 3.008-3.016 3.008h-5.856c-1.709 0-3.016-1.307-3.016-3.016v-2.84h-2.84z" fill="currentColor"/><path d="M87.84 149.416c0-1.709 1.307-3.016 3.016-3.016s3.016 1.307 3.016 3.016v2.84h2.84c1.709 0 3.016 1.307 3.016 3.016s-1.307 3.016-3.016 3.016h-2.84v8.696c0 1.709-1.307 3.016-3.016 3.016s-3.016-1.307-3.016-3.016v-2.84h-5.68v2.84c0 1.709-1.307 3.016-3.016 3.016H61.576c-1.709 0-3.016-1.307-3.016-3.016s1.307-3.016 3.016-3.016h8.696v-2.84c0-1.709 1.307-3.016 3.016-3.016H87.84v-8.696z" fill="currentColor"/><path fill-rule="evenodd" clip-rule="evenodd" d="M143.56 93.872c-1.709 0-3.016-1.307-3.016-3.016s1.307-3.016 3.016-3.016h5.856c1.709 0 3.016 1.307 3.016 3.016v2.84h2.84c1.709 0 3.016 1.307 3.016 3.016v2.84h5.68v-8.696c0-1.709 1.307-3.016 3.016-3.016S170 89.147 170 90.856v11.712c0 1.709-1.307 3.016-3.016 3.016h-14.552v8.696c0 1.709-1.307 3.016-3.016 3.016s-3.016-1.307-3.016-3.016v-2.84h-2.84c-1.709 0-3.016-1.307-3.016-3.016v-2.84h-5.68v11.536h8.696c1.709 0 3.016 1.307 3.016 3.016v2.84h2.84c1.709 0 3.016 1.307 3.016 3.016s-1.307 3.016-3.016 3.016h-2.84v5.68h2.84c1.709 0 3.016 1.307 3.016 3.016v2.84h2.84c1.709 0 3.016 1.307 3.016 3.016s-1.307 3.016-3.016 3.016H140.72v5.68h8.696c1.709 0 3.016 1.307 3.016 3.016v8.696h2.84c1.709 0 3.016 1.307 3.016 3.016S156.981 170 155.272 170H143.56c-1.709 0-3.016-1.307-3.016-3.016v-8.696h-17.392v2.84c0 1.709-1.307 3.016-3.016 3.016h-2.84v2.84c0 1.709-1.307 3.016-3.016 3.016h-11.712c-1.709 0-3.016-1.307-3.016-3.016s1.307-3.016 3.016-3.016h8.696v-5.68h-2.84c-1.709 0-3.016-1.307-3.016-3.016v-2.84h-2.84c-1.709 0-3.016-1.307-3.016-3.016s1.307-3.016 3.016-3.016h14.552v-5.68H99.728v2.84c0 1.709-1.307 3.016-3.016 3.016s-3.016-1.307-3.016-3.016v-5.856c0-1.709 1.307-3.016 3.016-3.016h2.84v-5.68h-2.84c-1.709 0-3.016-1.307-3.016-3.016V114.28c0-1.709 1.307-3.016 3.016-3.016s3.016 1.307 3.016 3.016v2.84h2.84c1.709 0 3.016 1.307 3.016 3.016v14.552h5.68v-2.84c0-1.709 1.307-3.016 3.016-3.016h2.84v-5.68h-2.84c-1.709 0-3.016-1.307-3.016-3.016s1.307-3.016 3.016-3.016h14.552v-14.552c0-1.709 1.307-3.016 3.016-3.016h2.84v-2.84c0-1.709 1.307-3.016 3.016-3.016s3.016 1.307 3.016 3.016v2.84h5.68v-5.68h-2.84zm-3.016 29.28h-17.392v17.392h17.392v-17.392zm-11.536 23.424h5.68v5.68h-5.68v-5.68z" fill="currentColor"/><path d="M158.112 67.432c0-1.709 1.307-3.016 3.016-3.016s3.016 1.307 3.016 3.016v2.84h2.84c1.709 0 3.016 1.307 3.016 3.016v5.856c0 1.709-1.307 3.016-3.016 3.016h-2.84V85c0 1.709-1.307 3.016-3.016 3.016s-3.016-1.307-3.016-3.016v-8.696h-2.84c-1.709 0-3.016-1.307-3.016-3.016s1.307-3.016 3.016-3.016h2.84v-2.84zM143.56 82.16c-1.709 0-3.016-1.307-3.016-3.016s1.307-3.016 3.016-3.016h5.856c1.709 0 3.016 1.307 3.016 3.016s-1.307 3.016-3.016 3.016h-5.856z" fill="currentColor"/><path fill-rule="evenodd" clip-rule="evenodd" d="M134.688 49.864c0-1.709 1.307-3.016 3.016-3.016h5.856c1.709 0 3.016 1.307 3.016 3.016v2.84h8.696c1.709 0 3.016 1.307 3.016 3.016v5.856c0 1.709-1.307 3.016-3.016 3.016h-2.84v2.84c0 1.709-1.307 3.016-3.016 3.016h-8.696v2.84c0 1.709-1.307 3.016-3.016 3.016s-3.016-1.307-3.016-3.016v-2.84h-5.68v5.68h2.84c1.709 0 3.016 1.307 3.016 3.016v2.84h2.84c1.709 0 3.016 1.307 3.016 3.016s-1.307 3.016-3.016 3.016h-11.712c-1.709 0-3.016-1.307-3.016-3.016v-2.84h-8.696c-1.709 0-3.016-1.307-3.016-3.016V61.576c0-1.709 1.307-3.016 3.016-3.016s3.016 1.307 3.016 3.016v2.84h5.68v-5.68h-2.84c-1.709 0-3.016-1.307-3.016-3.016s1.307-3.016 3.016-3.016h14.552v-2.84zm-17.392 20.584h5.68v5.68h-5.68v-5.68z" fill="currentColor"/></svg><svg fill="none" viewBox="0 0 42 42" id="icon-sass" xmlns="http://www.w3.org/2000/svg"><path d="M36.145 23.095a8.641 8.641 0 00-3.806.885c-.39-.778-.784-1.463-.85-1.971-.078-.594-.168-.949-.074-1.657.093-.708.503-1.71.496-1.785-.006-.075-.091-.435-.938-.442-.847-.006-1.57.163-1.656.387a8.212 8.212 0 00-.35 1.251c-.149.768-1.69 3.506-2.566 4.938-.287-.559-.53-1.051-.58-1.44-.078-.595-.168-.95-.074-1.657.093-.709.503-1.71.496-1.785-.006-.075-.091-.435-.938-.442-.847-.006-1.57.163-1.657.386-.085.224-.176.746-.349 1.252-.174.505-2.223 5.072-2.76 6.256a36.726 36.726 0 01-.68 1.419v-.002l-.03.06c-.143.28-.228.437-.228.437l.002.006c-.114.207-.236.399-.296.399-.042 0-.127-.551.018-1.306.305-1.584 1.037-4.055 1.03-4.14-.003-.044.137-.474-.478-.7-.597-.218-.81.146-.865.147-.053 0-.093.128-.093.128s.666-2.778-1.27-2.778c-1.21 0-2.886 1.324-3.712 2.523a1151.905 1151.905 0 00-4.178 2.29l-.091-.098c-2.347-2.504-6.684-4.275-6.5-7.64.067-1.224.492-4.447 8.335-8.355 6.425-3.202 11.57-2.32 12.458-.368 1.27 2.79-2.75 7.975-9.421 8.722-2.543.285-3.88-.7-4.214-1.067-.35-.387-.403-.404-.534-.331-.213.118-.078.46 0 .662.2.519 1.017 1.439 2.411 1.895 1.226.403 4.21.624 7.821-.772 4.043-1.564 7.2-5.915 6.273-9.55-.944-3.7-7.075-4.915-12.879-2.853-3.453 1.227-7.192 3.153-9.88 5.667C.34 14.656-.17 17.259.04 18.346c.747 3.863 6.071 6.379 8.204 8.244l-.294.162c-1.07.529-5.128 2.653-6.143 4.898-1.152 2.546.183 4.372 1.067 4.619 2.739.761 5.549-.61 7.06-2.862 1.51-2.252 1.325-5.184.632-6.523-.009-.017-.019-.033-.027-.05.276-.164.558-.33.837-.493a57.24 57.24 0 011.542-.87c-.26.71-.45 1.562-.549 2.793-.116 1.445.477 3.313 1.252 4.048.34.324.752.331 1.012.331.902 0 1.314-.75 1.766-1.638.556-1.088 1.05-2.355 1.05-2.355s-.62 3.423 1.067 3.423c.614 0 1.232-.797 1.508-1.203v.007s.017-.026.048-.08c.064-.097.1-.16.1-.16l.003-.017c.247-.429.795-1.406 1.616-3.019 1.06-2.083 2.08-4.692 2.08-4.692s.094.638.404 1.693c.182.62.57 1.306.876 1.964-.246.342-.397.538-.397.538l.004.01a19.95 19.95 0 01-.649.818c-.837.998-1.835 2.137-1.968 2.466-.158.387-.12.673.184.901.221.168.617.194 1.03.166a4.701 4.701 0 001.544-.351 5.17 5.17 0 001.327-.698c.822-.604 1.317-1.469 1.27-2.613-.026-.631-.227-1.256-.482-1.847.075-.107.15-.215.224-.325 1.296-1.894 2.3-3.974 2.3-3.974s.095.638.405 1.692c.157.534.467 1.116.745 1.688-1.218.989-1.973 2.139-2.236 2.893-.485 1.395-.105 2.028.607 2.172.323.065.779-.083 1.122-.228.426-.141.939-.377 1.418-.73.821-.603 1.611-1.449 1.563-2.594-.021-.52-.162-1.038-.354-1.535 1.032-.43 2.37-.67 4.072-.47 3.653.426 4.37 2.706 4.233 3.66-.137.956-.903 1.48-1.16 1.639-.255.158-.334.213-.312.33.031.172.15.165.368.128.3-.05 1.918-.776 1.987-2.538.088-2.233-2.056-4.69-5.852-4.67zM7.99 32.585c-1.21 1.32-2.9 1.819-3.626 1.399-.783-.454-.473-2.398 1.013-3.798.904-.853 2.073-1.64 2.848-2.124l.75-.451.081-.046v-.002l.187-.113c.54 1.995.017 3.75-1.253 5.135zm8.813-5.992c-.421 1.027-1.303 3.655-1.84 3.514-.461-.12-.742-2.119-.092-4.084.326-.99 1.024-2.173 1.435-2.632.66-.738 1.388-.98 1.564-.68.226.38-.802 3.238-1.067 3.882zm7.283 3.475c-.179.093-.343.152-.418.107-.057-.034.073-.157.073-.157s.911-.98 1.27-1.426c.209-.26.452-.568.715-.912l.003.102c-.003 1.174-1.137 1.967-1.643 2.286zm5.61-1.28c-.133-.094-.11-.401.327-1.355.172-.375.564-1.007 1.247-1.61.079.248.128.486.126.708-.01 1.477-1.063 2.029-1.7 2.258z" fill="currentColor"/></svg><svg fill="none" viewBox="0 0 16 16" id="icon-shield-fill-check" xmlns="http://www.w3.org/2000/svg"><path fill-rule="evenodd" clip-rule="evenodd" d="M8 0c-.69 0-1.843.265-2.928.56-1.11.3-2.229.655-2.887.87a1.54 1.54 0 00-1.044 1.262c-.596 4.477.787 7.795 2.465 9.99a11.777 11.777 0 002.517 2.453c.386.273.744.482 1.048.625.28.132.581.24.829.24s.548-.108.829-.24a7.159 7.159 0 001.048-.625 11.775 11.775 0 002.517-2.453c1.678-2.195 3.061-5.513 2.465-9.99a1.541 1.541 0 00-1.044-1.263 62.467 62.467 0 00-2.887-.87C9.843.266 8.69 0 8 0zm2.146 5.146a.5.5 0 01.708.708l-3 3a.5.5 0 01-.708 0l-1.5-1.5a.5.5 0 11.708-.708L7.5 7.793l2.646-2.647z" fill="currentColor"/></svg><svg fill="none" viewBox="0 0 24 24" id="icon-star" xmlns="http://www.w3.org/2000/svg"><path d="M4.297 22.276c-.117.665.54 1.186 1.12.888L12 19.78l6.584 3.384c.58.298 1.236-.223 1.12-.888l-1.245-7.094 5.283-5.035c.494-.47.238-1.33-.423-1.425L15.97 7.678l-3.276-6.49a.77.77 0 00-1.39 0L8.03 7.678.681 8.722c-.661.094-.917.954-.423 1.425l5.283 5.035-1.244 7.094zm7.357-4.152l-5.529 2.841 1.042-5.935a.847.847 0 00-.245-.758l-4.36-4.155 6.079-.864a.788.788 0 00.589-.43L12 3.334l2.77 5.487a.788.788 0 00.59.431l6.078.864-4.36 4.155a.847.847 0 00-.244.758l1.04 5.935-5.528-2.841a.754.754 0 00-.692 0z" fill="currentColor"/></svg><svg fill="none" viewBox="0 0 42 42" id="icon-tailwind" xmlns="http://www.w3.org/2000/svg"><path fill-rule="evenodd" clip-rule="evenodd" d="M21 8c-5.6 0-9.1 2.8-10.5 8.4 2.1-2.8 4.55-3.85 7.35-3.15 1.598.399 2.74 1.559 4.003 2.841 2.059 2.09 4.442 4.509 9.647 4.509 5.6 0 9.1-2.8 10.5-8.4-2.1 2.8-4.55 3.85-7.35 3.15-1.598-.399-2.74-1.559-4.003-2.841C28.588 10.419 26.205 8 21 8zM10.5 20.6C4.9 20.6 1.4 23.4 0 29c2.1-2.8 4.55-3.85 7.35-3.15 1.598.4 2.74 1.559 4.003 2.841C13.412 30.781 15.795 33.2 21 33.2c5.6 0 9.1-2.8 10.5-8.4-2.1 2.8-4.55 3.85-7.35 3.15-1.598-.399-2.74-1.559-4.003-2.841-2.059-2.09-4.442-4.509-9.647-4.509z" fill="currentColor"/></svg><svg fill="none" viewBox="0 0 24 24" id="icon-telegram" xmlns="http://www.w3.org/2000/svg"><path fill-rule="evenodd" clip-rule="evenodd" d="M24 12c0 6.627-5.373 12-12 12-6.628 0-12-5.373-12-12S5.372 0 12 0c6.627 0 12 5.373 12 12zM12.43 8.859c-1.168.485-3.5 1.49-6.999 3.014-.568.226-.865.447-.892.663-.046.366.411.51 1.034.705.085.027.172.054.262.084.613.199 1.437.432 1.866.441.388.008.822-.152 1.301-.48 3.269-2.207 4.956-3.322 5.062-3.346.075-.017.178-.039.248.024.07.062.064.18.056.212-.045.193-1.84 1.862-2.77 2.726-.289.269-.494.46-.536.504-.095.097-.19.19-.282.279-.57.548-.997.96.023 1.632.49.323.882.59 1.273.856.428.291.854.581 1.405.943.14.092.275.187.405.28.498.355.944.673 1.496.623.32-.03.652-.331.82-1.23.398-2.126 1.18-6.73 1.36-8.628a2.117 2.117 0 00-.02-.472.506.506 0 00-.171-.325c-.144-.117-.366-.142-.465-.14-.451.008-1.144.249-4.476 1.635z" fill="currentColor"/></svg><svg fill="none" viewBox="0 0 16 16" id="icon-three-dots" xmlns="http://www.w3.org/2000/svg"><path d="M3 9.5a1.5 1.5 0 110-3 1.5 1.5 0 010 3zm5 0a1.5 1.5 0 110-3 1.5 1.5 0 010 3zm5 0a1.5 1.5 0 110-3 1.5 1.5 0 010 3z" fill="currentColor"/></svg><svg fill="none" viewBox="0 0 42 42" id="icon-ux" xmlns="http://www.w3.org/2000/svg"><path fill-rule="evenodd" clip-rule="evenodd" d="M3.924 3.058c-.969.144-2.08.753-2.741 1.5C.723 5.08.205 6.13.088 6.78.035 7.071 0 8.56 0 10.49v3.225h42l-.027-3.506-.026-3.506-.21-.543c-.305-.787-.617-1.283-1.135-1.8-.536-.536-1.017-.833-1.832-1.131l-.593-.217-16.895-.011c-9.292-.006-17.103.02-17.358.057zm3.36 5.492c.77.47.594 1.68-.286 1.97-.738.245-1.546-.48-1.38-1.236.064-.29.405-.722.65-.82a1.24 1.24 0 011.016.086zm4.747-.005c1.047.638.328 2.296-.857 1.977a1.067 1.067 0 01-.449-1.827c.123-.115.279-.229.347-.253.266-.097.71-.05.96.103zm4.707-.034c.515.266.724 1.017.425 1.523-.203.344-.748.59-1.145.516-.372-.069-.8-.481-.872-.84-.178-.89.786-1.616 1.592-1.199zM36 8.667c.64.612.416 1.614-.412 1.851-.17.049-2.426.08-5.716.08-4.422 0-5.486-.02-5.7-.112-.847-.361-.961-1.475-.199-1.942.255-.157.423-.16 6.019-.14l5.756.021.252.242zM0 24.853c0 5.975.029 9.086.088 9.411.048.268.234.793.414 1.167.547 1.14 1.469 1.939 2.779 2.41l.533.19h34.363l.533-.19c.774-.279 1.35-.632 1.882-1.154.524-.515.834-1.003 1.146-1.803l.211-.543.023-9.206.022-9.206H0v8.924zm12.557-3.451c.133.078.313.292.403.477.15.31.162.51.162 2.649 0 2.542.01 2.61.502 3.17.917 1.043 2.649.782 3.24-.489.188-.403.193-.471.194-2.738 0-2.001.02-2.365.138-2.614.376-.793 1.563-.793 1.94 0 .118.249.137.61.136 2.614-.002 2.555-.055 2.978-.483 3.826-.785 1.554-2.549 2.475-4.274 2.23-1.614-.229-3.056-1.492-3.457-3.027-.2-.768-.219-5.295-.023-5.674.266-.514 1.016-.723 1.522-.424zm10.76-.051c.099.05.835.741 1.635 1.537l1.456 1.446 1.415-1.403c.778-.771 1.506-1.463 1.617-1.537.274-.181.806-.169 1.126.027.472.288.651.906.4 1.38-.065.123-.748.85-1.518 1.616-.77.766-1.4 1.43-1.4 1.477 0 .046.63.71 1.4 1.477.77.766 1.453 1.493 1.517 1.614.252.475.073 1.094-.399 1.382-.32.195-.852.208-1.126.026-.111-.074-.839-.765-1.616-1.536l-1.414-1.401-1.544 1.535-1.543 1.536h-.436c-.396 0-.463-.028-.753-.318-.283-.283-.319-.363-.319-.72 0-.235.056-.486.135-.604.073-.112.756-.83 1.517-1.598l1.383-1.395-1.4-1.393c-.77-.767-1.453-1.493-1.517-1.615-.065-.122-.118-.394-.118-.605 0-.335.04-.422.319-.7.268-.269.372-.32.661-.32.189 0 .424.042.522.092z" fill="currentColor"/></svg><svg fill="none" viewBox="0 0 42 42" id="icon-webpack" xmlns="http://www.w3.org/2000/svg"><path d="M38.705 32.37L21.683 42v-7.498l10.606-5.836 6.416 3.704zm1.166-1.054V11.18l-6.226 3.598v12.944l6.226 3.593zM3.166 32.37L20.188 42v-7.498L9.577 28.666l-6.41 3.704zM2 31.316V11.18l6.226 3.598v12.944L2 31.316zm.73-21.44L20.189 0v7.247L9.002 13.401l-.09.05-6.181-3.576zm36.41 0L21.684 0v7.247l11.187 6.149.089.05 6.181-3.57zM20.188 32.794L9.722 27.037V15.638l10.466 6.043v11.113zm1.495 0l10.467-5.752V15.638l-10.467 6.043v11.113zM10.43 14.322l10.506-5.775 10.505 5.775-10.505 6.064-10.506-6.064z" fill="currentColor"/></svg><svg fill="none" viewBox="0 0 16 16" id="icon-window" xmlns="http://www.w3.org/2000/svg"><path d="M13 6.5a.5.5 0 00-.5-.5h-5a.5.5 0 000 1h5a.5.5 0 00.5-.5zM13 9.5a.5.5 0 00-.5-.5h-5a.5.5 0 000 1h5a.5.5 0 00.5-.5zM12.5 12a.5.5 0 010 1h-5a.5.5 0 010-1h5z" fill="currentColor"/><path d="M14 0a2 2 0 012 2v12a2 2 0 01-2 2H2a2 2 0 01-2-2V2a2 2 0 012-2h12zM2 1a1 1 0 00-1 1v1h14V2a1 1 0 00-1-1H2zM1 4v10a1 1 0 001 1h2V4H1zm4 0v11h9a1 1 0 001-1V4H5z" fill="currentColor"/></svg><svg fill="none" viewBox="0 0 42 42" id="icon-wordpress" xmlns="http://www.w3.org/2000/svg"><path d="M4.201 21c0 6.653 3.864 12.396 9.469 15.12L5.654 14.162A16.738 16.738 0 004.201 21zm28.143-.846c0-2.076-1.116-3.518-1.753-4.633-.854-1.395-1.655-2.559-1.655-3.94 0-1.538 1.544-2.982 3.193-2.982.075 0 .142.007.216.009A16.696 16.696 0 0021.001 4.2c-5.658 0-10.66 2.8-13.705 7.086.24.078.323.041.642.041 1.752 0 4.477-.21 4.477-.21.903-.06 1.014 1.273.104 1.382 0 0-.907.11-1.92.16l6.228 18.667L20.502 20.3l-2.733-7.61c-.904-.05-1.763-.16-1.763-.16-.905-.06-.8-1.444.103-1.382 0 0 2.78.21 4.428.21 1.759 0 4.477-.21 4.477-.21.904-.06 1.014 1.272.11 1.382 0 0-.914.11-1.924.16l6.185 18.49 1.68-5.593c.854-2.184 1.28-3.99 1.28-5.433zm-11.049 2.312l-5.04 14.65c1.508.447 3.098.684 4.746.684 1.954 0 3.831-.34 5.582-.952-.042-.075-.09-.15-.124-.231l-5.164-14.151zm14.45-9.532c.075.535.114 1.112.114 1.727 0 1.71-.322 3.624-1.28 6.024l-5.13 14.842C34.445 32.617 37.8 27.197 37.8 21a16.8 16.8 0 00-2.055-8.066z" fill="currentColor"/><path d="M0 21c0 11.575 9.419 21 20.999 21C32.58 42 42 32.575 42 21S32.581 0 21 0 0 9.425 0 21zm2.095 0c0-10.42 8.477-18.899 18.904-18.899 10.426 0 18.906 8.479 18.906 18.899 0 10.42-8.48 18.9-18.905 18.9-10.424 0-18.905-8.48-18.905-18.9z" fill="currentColor"/></svg><svg viewBox="0 0 3162 712" fill="none" id="logo-maxuiux" xmlns="http://www.w3.org/2000/svg"><path d="M422.094 458.845v246.727c81.95-15.328 153.533-59.333 205.369-120.644L481.335 434.122c-21.722-21.755-59.241-6.427-59.241 24.723z" fill="currentColor"/><path d="M355.447 0C158.964 0 0 159.211 0 356c0 165.144 112.065 303.589 264.117 344.133V190.361c0-19.283 15.304-34.611 34.557-34.611h109.103c9.38 0 17.772 3.461 24.19 10.383L701.515 436.1c5.924-25.711 8.886-52.411 8.886-80.1.494-196.789-158.964-356-354.954-356zM1140.39 356h-29.62c-8.39 0-14.81 6.428-14.81 14.833v30.656C1064.37 373.306 1022.9 356 977.48 356c-98.242 0-177.724 79.606-177.724 178s79.482 178 177.724 178c45.42 0 86.89-17.305 118.48-45.489v30.656c0 8.405 6.42 14.833 14.81 14.833h29.62c8.4 0 14.81-6.428 14.81-14.833V370.833c0-8.405-6.91-14.833-14.81-14.833zM977.48 652.667c-65.659 0-118.482-52.906-118.482-118.667s52.823-118.667 118.482-118.667c65.66 0 118.48 52.906 118.48 118.667s-53.31 118.667-118.48 118.667zM1557.55 418.794l-20.73-20.766c-5.93-5.934-15.31-5.934-20.74 0l-94.29 94.439-94.29-94.439c-5.93-5.934-15.31-5.934-20.74 0l-20.73 20.766c-5.93 5.934-5.93 15.328 0 20.767L1380.32 534l-94.29 94.439c-5.93 5.933-5.93 15.328 0 20.767l20.73 20.766c5.93 5.934 15.31 5.934 20.74 0l94.29-94.439 94.29 94.439c5.93 5.934 15.31 5.934 20.74 0l20.73-20.766c5.92-5.934 5.92-15.328 0-20.767L1463.75 534l94.29-94.439c5.43-5.933 5.43-15.328-.49-20.767zM2029.01 356h-29.62c-8.39 0-14.81 6.428-14.81 14.833V534c0 65.761-52.82 118.667-118.48 118.667S1747.62 599.761 1747.62 534V370.833c0-8.405-6.42-14.833-14.81-14.833h-29.63c-8.39 0-14.81 6.428-14.81 14.833V534c0 98.394 79.49 178 177.73 178s177.72-79.606 177.72-178V370.833c0-8.405-6.91-14.833-14.81-14.833zM2221.55 479.611h-29.62c-8.4 0-14.82 6.428-14.82 14.833v202.723c0 8.405 6.42 14.833 14.82 14.833h29.62c8.39 0 14.81-6.428 14.81-14.833V494.444c0-8.405-6.92-14.833-14.81-14.833zM2206.74 415.333c16.35 0 29.62-13.282 29.62-29.666 0-16.385-13.27-29.667-29.62-29.667-16.36 0-29.63 13.282-29.63 29.667 0 16.384 13.27 29.666 29.63 29.666zM2739.91 356h-29.62c-8.4 0-14.81 6.428-14.81 14.833V534c0 65.761-52.83 118.667-118.49 118.667S2458.51 599.761 2458.51 534V370.833c0-8.405-6.42-14.833-14.81-14.833h-29.62c-8.39 0-14.81 6.428-14.81 14.833V534c0 98.394 79.48 178 177.72 178s177.73-79.606 177.73-178V370.833c0-8.405-6.91-14.833-14.81-14.833zM3063.26 534l94.3-94.439c5.92-5.933 5.92-15.328 0-20.767l-20.74-20.766c-5.92-5.934-15.3-5.934-20.73 0l-94.29 94.439-94.3-94.439c-5.92-5.934-15.3-5.934-20.73 0l-20.74 20.766c-5.92 5.934-5.92 15.328 0 20.767l94.3 94.439-94.3 94.439c-5.92 5.933-5.92 15.328 0 20.767l20.74 20.766c5.92 5.934 15.3 5.934 20.73 0l94.3-94.439 94.29 94.439c5.92 5.934 15.3 5.934 20.73 0l20.74-20.766c5.92-5.934 5.92-15.328 0-20.767L3063.26 534z" fill="currentColor"/></svg></svg>